<svg xmlns="http://www.w3.org/2000/svg" version="1.0" width="1280.000000pt" height="574.000000pt" viewBox="0 0 1280.000000 574.000000" preserveAspectRatio="xMidYMid meet">

<g transform="translate(0.000000,574.000000) scale(0.100000,-0.100000)" fill="#1c1c1c" stroke="none">
<path d="M0 5538 l0 -203 29 -50 c64 -111 256 -299 316 -311 93 -17 222 37 332 139 121 111 97 109 195 14 l85 -84 69 -6 c38 -4 154 -7 258 -7 l188 0 20 -25 c27 -35 38 -31 38 13 0 82 84 150 163 132 21 -4 46 -15 56 -24 10 -9 20 -13 24 -10 17 17 -105 143 -181 186 -88 52 -175 28 -213 -57 l-20 -44 -36 40 -37 40 -12 -24 c-8 -15 -26 -27 -45 -31 -53 -10 -68 -7 -81 18 -26 49 -161 187 -212 216 -59 34 -127 39 -195 15 -41 -14 -178 -113 -216 -155 -11 -12 -42 -41 -69 -63 -46 -39 -49 -40 -62 -22 -30 41 -7 122 55 195 l29 35 41 -40 41 -39 30 36 c18 21 59 51 98 70 60 30 76 33 152 33 79 0 92 -3 161 -37 48 -24 97 -59 142 -102 60 -59 87 -78 87 -60 0 3 -9 17 -20 31 -27 35 -25 68 10 133 16 30 35 67 41 83 6 15 14 27 18 27 4 0 37 -34 72 -75 35 -41 69 -75 76 -75 7 0 19 12 27 28 21 40 56 69 105 87 53 18 128 19 159 1 13 -7 69 -62 125 -123 145 -157 182 -189 356 -300 110 -72 237 -113 346 -113 134 0 259 48 344 134 28 28 57 60 65 71 13 18 16 18 72 -25 81 -63 94 -69 135 -70 28 0 51 11 97 44 85 63 100 63 174 3 55 -44 113 -71 130 -61 5 4 -7 14 -29 24 -56 26 -81 59 -94 123 -20 99 6 232 80 414 l21 52 -280 0 -280 1 -81 -80 c-75 -74 -99 -92 -99 -72 0 11 101 115 130 134 24 16 16 17 -150 17 l-175 1 -45 -66 c-25 -36 -48 -71 -52 -78 -5 -7 -13 -3 -25 14 -9 14 -39 49 -67 78 l-49 52 -155 0 -154 0 -37 -37 c-23 -23 -44 -59 -54 -90 l-17 -52 34 -53 c68 -106 193 -215 282 -245 69 -24 189 -14 245 20 57 33 137 113 206 205 l55 73 68 -65 c40 -38 81 -67 99 -71 52 -11 110 26 230 147 96 96 109 106 100 77 -25 -79 -30 -117 -27 -177 4 -59 3 -62 -17 -55 -11 5 -39 8 -61 8 -35 0 -49 -7 -87 -42 -79 -73 -118 -68 -234 34 -64 56 -65 56 -77 3 -9 -40 -119 -144 -193 -181 -60 -30 -76 -34 -167 -37 -96 -4 -106 -2 -192 31 -138 53 -275 135 -299 180 -18 32 -18 41 -7 84 7 26 33 91 57 143 l45 95 -132 3 c-84 2 -135 -1 -142 -8 -6 -6 -11 -35 -11 -64 l0 -53 -54 48 c-79 71 -102 79 -222 79 l-102 0 -38 -40 -39 -40 -36 40 c-35 38 -39 40 -95 40 l-59 0 -30 -52 c-16 -29 -33 -68 -36 -85 l-6 -33 -42 35 c-56 46 -165 96 -229 105 -48 6 -49 9 -7 23 8 3 -32 5 -90 5 -67 0 -96 -3 -80 -8 14 -4 39 -9 55 -10 29 -2 29 -2 -8 -11 -48 -11 -113 -44 -156 -80 l-34 -28 -77 70 c-75 68 -131 98 -77 41 36 -38 34 -71 -9 -148 -63 -114 -46 -176 85 -310 l51 -52 -50 -21 c-51 -22 -134 -28 -160 -11 -12 8 -15 42 -15 202 0 106 3 232 8 281 l7 87 -90 0 -90 0 0 -202z m2428 52 c23 -10 42 -25 42 -33 0 -23 -108 -127 -149 -144 -69 -30 -103 -33 -155 -17 l-48 16 5 40 c6 42 43 99 84 125 53 35 159 41 221 13z m-1360 -304 c15 -8 38 -26 51 -40 l24 -26 -168 0 c-166 0 -168 0 -150 19 49 55 180 80 243 47z" fill="#1c1c1c"/>
<path d="M3709 5693 c-83 -90 -118 -173 -100 -238 12 -46 168 -235 235 -285 l53 -40 130 0 130 0 39 -31 c42 -34 87 -59 104 -59 18 0 11 22 -10 27 -34 9 -38 88 -8 166 6 15 13 27 15 27 3 0 25 -18 50 -40 l46 -40 131 -2 c72 -2 158 -3 191 -2 l60 1 50 -58 c53 -62 72 -73 58 -36 -15 42 -6 116 22 163 l26 45 62 -62 c79 -77 139 -109 209 -109 61 0 103 21 141 72 31 40 62 146 53 181 -9 38 -186 247 -208 247 -5 0 1 -18 12 -40 63 -124 -25 -284 -155 -282 -73 1 -129 41 -241 173 -41 49 -83 89 -91 89 -13 0 -12 -5 7 -25 22 -24 23 -28 11 -58 -7 -18 -21 -54 -30 -81 l-17 -48 -32 38 -31 39 -16 -22 c-16 -22 -22 -23 -170 -23 l-153 0 -50 63 c-61 76 -149 163 -157 155 -3 -3 3 -21 14 -39 26 -43 26 -69 1 -125 -11 -24 -24 -54 -29 -67 -9 -23 -15 -24 -137 -31 -70 -3 -129 -5 -131 -2 -21 21 63 143 192 276 45 47 87 94 93 105 10 19 12 19 44 -12 61 -58 225 -160 279 -173 103 -25 226 -2 286 52 l22 21 71 -62 c66 -57 100 -74 100 -52 0 5 -9 12 -19 16 -29 9 -33 47 -11 119 12 36 23 66 26 66 3 0 22 -11 42 -25 36 -24 41 -25 218 -25 l182 0 42 -35 c23 -19 50 -35 61 -35 24 0 24 8 -1 28 -16 13 -21 31 -23 80 l-2 62 -467 0 c-385 -1 -474 -3 -509 -15 -53 -19 -123 -19 -185 0 -37 11 -103 15 -265 15 l-216 0 -44 -47z" fill="#1c1c1c"/>
<path d="M5479 5713 c-6 -16 -11 -51 -11 -78 -1 -70 47 -142 178 -272 116 -115 245 -204 346 -240 132 -46 375 -41 584 12 97 25 254 99 308 145 17 15 45 36 62 48 l31 22 114 -100 c96 -84 139 -114 139 -97 0 2 -18 22 -40 45 -23 25 -44 60 -51 85 -16 60 -5 204 25 317 15 52 29 105 32 118 6 22 6 22 -121 22 -71 0 -124 -4 -121 -9 3 -5 -3 -53 -15 -107 -16 -78 -18 -107 -10 -138 5 -22 9 -41 8 -43 -2 -1 -38 30 -80 69 -43 39 -79 69 -80 67 -2 -2 -10 -20 -19 -40 -30 -67 -136 -137 -318 -209 -108 -43 -206 -60 -343 -60 -119 0 -205 19 -322 71 -140 61 -168 103 -126 195 55 121 193 183 345 155 82 -15 186 -72 186 -102 0 -19 -118 -62 -181 -67 -80 -5 -135 16 -203 79 -44 40 -67 48 -49 15 14 -26 216 -206 261 -233 138 -82 205 -67 457 105 106 73 212 153 288 219 l37 33 -200 0 -199 0 -93 -71 c-86 -65 -93 -69 -105 -52 -7 10 -31 42 -54 71 l-40 52 -305 0 -304 0 -11 -27z" fill="#1c1c1c"/>
<path d="M7265 5699 c17 -47 42 -90 82 -141 50 -62 262 -257 303 -278 104 -53 235 7 247 114 l6 46 69 -60 c38 -33 75 -60 83 -60 7 0 28 25 45 55 62 108 123 123 187 47 26 -31 38 -25 24 11 -11 29 -170 170 -217 192 -68 32 -123 11 -180 -68 l-35 -49 -84 81 c-75 72 -105 93 -105 76 0 -3 7 -17 16 -30 32 -49 -9 -130 -86 -170 -64 -33 -163 4 -195 72 -15 31 -16 45 -6 104 6 37 14 74 17 83 5 14 -6 16 -89 16 l-96 0 14 -41z" fill="#1c1c1c"/>
<path d="M7860 5722 c45 -21 179 -21 240 0 44 16 43 16 -115 16 -155 0 -159 0 -125 -16z" fill="#1c1c1c"/>
<path d="M8381 5611 c-23 -71 -41 -147 -41 -169 0 -71 107 -202 245 -300 50 -36 54 -20 6 23 -30 27 -45 52 -57 91 -18 62 -15 85 32 239 38 124 41 159 17 210 l-17 35 -72 0 -72 0 -41 -129z" fill="#1c1c1c"/>
<path d="M8810 5658 c-17 -46 -41 -105 -52 -133 -31 -72 -28 -160 8 -231 44 -88 240 -284 283 -284 21 0 11 15 -25 40 -47 31 -80 83 -94 143 -13 62 5 150 69 334 27 76 51 155 55 176 l7 37 -110 0 -110 0 -31 -82z" fill="#1c1c1c"/>
<path d="M9099 5658 c-8 -46 -14 -121 -14 -168 0 -111 12 -133 159 -287 166 -174 235 -202 352 -147 59 28 111 87 121 137 3 15 9 29 13 32 4 2 31 -24 60 -58 100 -118 144 -133 232 -77 101 63 106 65 132 41 31 -29 40 -15 15 21 -38 53 -132 149 -160 164 -45 23 -70 17 -138 -36 -36 -28 -70 -50 -76 -50 -31 0 -62 40 -69 87 -4 26 -19 73 -34 104 l-28 57 24 -9 c37 -14 101 -11 139 7 l34 17 37 -36 c20 -20 62 -49 93 -64 37 -19 73 -49 106 -88 106 -126 209 -224 258 -246 76 -34 166 -29 294 16 117 41 129 41 201 -11 33 -24 51 -31 56 -23 4 7 -1 16 -10 21 -29 16 -86 70 -98 92 -38 70 -26 164 51 397 28 84 51 161 51 171 0 17 -19 18 -355 18 l-355 0 -77 -72 c-43 -40 -79 -76 -81 -80 -8 -17 -103 -69 -121 -66 -16 2 -1 23 81 111 l100 107 -164 0 c-162 0 -163 -1 -187 -26 -35 -36 -114 -74 -156 -74 -41 0 -78 17 -142 66 -67 51 -69 32 -4 -34 76 -77 104 -137 105 -227 1 -76 -20 -129 -66 -172 -45 -43 -159 -50 -193 -13 -14 16 -15 32 -5 141 6 68 20 167 31 219 10 52 19 101 19 108 0 9 -28 12 -109 12 l-109 0 -13 -82z m1539 64 c10 -7 5 -36 -24 -133 -39 -135 -41 -206 -9 -256 16 -24 16 -25 -3 -19 -13 4 -55 -7 -109 -27 -108 -42 -191 -60 -229 -51 -44 10 -105 48 -149 93 -35 37 -37 41 -17 41 48 0 94 32 238 167 191 178 210 193 254 193 19 0 41 -4 48 -8z" fill="#1c1c1c"/>
<path d="M10974 5658 c-36 -109 -39 -222 -6 -285 24 -45 125 -170 200 -246 65 -66 159 -111 227 -110 72 2 148 36 189 86 l33 40 83 -79 c50 -48 85 -74 87 -66 3 7 19 34 37 60 25 36 48 55 105 85 45 22 88 37 110 37 44 0 104 -30 154 -78 26 -25 37 -31 37 -20 0 42 -177 220 -258 259 -59 29 -150 30 -207 4 -22 -11 -68 -47 -102 -81 l-62 -61 -66 73 c-53 59 -61 72 -40 64 45 -17 168 -12 217 9 46 19 127 105 182 191 26 40 85 129 92 139 2 2 31 -22 66 -53 78 -71 172 -118 240 -120 46 -1 53 2 82 36 17 20 50 73 74 117 l43 81 -136 0 c-76 0 -135 -4 -135 -9 0 -18 -62 -71 -83 -71 -32 0 -89 18 -111 35 -16 12 -17 17 -6 30 11 13 -4 15 -138 15 -83 0 -152 -4 -154 -9 -11 -33 -146 -172 -187 -195 -89 -48 -228 -31 -307 38 l-38 33 13 54 c8 30 16 60 18 67 4 9 -22 12 -110 12 l-116 0 -27 -82z m409 -264 c40 -27 42 -31 36 -64 -10 -46 -72 -101 -142 -125 -47 -16 -61 -17 -95 -7 -37 11 -40 15 -47 57 -8 59 0 139 26 241 l21 80 79 -77 c43 -42 98 -90 122 -105z" fill="#1c1c1c"/>
<path d="M11345 5730 c13 -21 105 -60 142 -60 36 0 113 42 113 61 0 5 -59 9 -131 9 -86 0 -128 -3 -124 -10z" fill="#1c1c1c"/>
<path d="M12526 5708 c-18 -105 -28 -221 -23 -276 12 -121 95 -249 206 -317 81 -49 105 -47 53 5 -54 54 -67 110 -58 249 3 58 17 166 29 239 l23 132 -112 0 -112 0 -6 -32z" fill="#1c1c1c"/>
<path d="M7280 5102 c0 -5 13 -18 30 -30 36 -27 55 -63 65 -120 6 -40 2 -54 -51 -162 -31 -66 -61 -117 -65 -115 -4 3 -10 17 -14 32 -10 42 -87 151 -155 220 -80 81 -202 163 -243 163 -41 0 -94 -38 -162 -116 -63 -71 -123 -102 -165 -85 -14 5 -56 37 -94 71 l-69 62 -13 -37 c-19 -55 -68 -100 -130 -120 -50 -16 -58 -16 -100 -1 -26 9 -70 34 -99 56 -28 22 -54 40 -58 40 -26 0 51 -108 133 -184 76 -71 142 -101 225 -100 51 0 81 6 111 22 49 25 94 75 94 105 0 19 2 19 33 -9 80 -76 143 -98 188 -67 15 10 66 53 114 95 97 86 146 108 196 88 55 -23 56 -91 4 -288 l-28 -103 -21 19 c-113 102 -194 95 -252 -20 l-26 -50 -31 30 c-18 17 -63 47 -100 67 -150 82 -220 68 -318 -64 l-25 -34 -75 75 c-125 125 -170 126 -303 8 -43 -38 -81 -70 -83 -70 -17 0 -63 37 -59 47 26 68 7 172 -49 259 -57 89 -235 254 -273 254 -12 0 -12 -3 4 -15 10 -8 16 -15 13 -15 -4 0 15 -23 42 -51 120 -126 119 -204 -6 -569 -92 -270 -84 -316 86 -515 138 -161 237 -216 349 -195 67 13 123 44 154 88 l24 34 82 -78 c78 -74 83 -77 96 -59 8 10 14 24 14 30 0 17 69 79 121 109 94 54 168 44 253 -35 30 -27 46 -36 46 -26 0 40 -168 209 -252 254 -97 52 -221 20 -319 -84 -27 -29 -52 -53 -53 -53 -2 0 -34 34 -71 75 -56 63 -63 74 -39 64 52 -20 173 -15 225 10 52 25 125 109 213 244 l56 88 60 -54 c72 -65 166 -114 236 -123 46 -6 53 -4 80 23 16 17 53 74 83 129 57 104 102 176 107 172 1 -2 -6 -43 -17 -93 -26 -123 -36 -310 -19 -371 17 -60 97 -182 141 -215 52 -39 118 -73 126 -65 4 4 -5 17 -19 29 -52 43 -62 80 -61 215 0 113 7 163 49 382 8 42 14 87 15 100 l0 25 17 -25 c47 -68 118 -142 166 -174 69 -46 108 -49 54 -5 -32 26 -38 37 -38 68 0 46 29 130 83 243 l42 87 90 -80 c92 -82 142 -111 255 -149 84 -28 162 -23 262 20 l72 30 -59 -61 c-75 -76 -163 -145 -212 -166 -82 -34 -248 14 -351 100 -41 35 -72 47 -72 29 0 -23 117 -141 199 -201 66 -48 195 -109 247 -117 49 -7 48 -5 34 -55 -10 -34 -87 -119 -108 -119 -5 0 -22 19 -37 41 -71 108 -156 174 -269 208 -157 48 -278 13 -327 -94 -32 -69 -21 -139 33 -205 34 -44 157 -154 164 -147 2 2 -7 27 -21 55 -23 46 -24 55 -15 98 12 54 23 70 64 95 l29 17 36 -47 c50 -66 134 -136 208 -173 142 -69 304 -38 417 80 l29 31 74 -80 c48 -50 83 -79 96 -79 13 0 48 27 90 71 l69 70 57 -49 c103 -89 99 -88 156 -38 62 53 86 66 124 66 45 0 80 -16 139 -66 53 -43 82 -55 82 -34 0 6 -7 13 -15 16 -48 19 -88 173 -74 284 11 93 36 209 59 276 12 34 20 83 20 122 0 55 -5 75 -37 136 -21 40 -61 94 -91 124 l-54 53 19 22 c11 12 35 39 54 61 40 45 72 60 100 46 26 -15 24 -3 -8 39 -61 81 -108 111 -173 111 -46 0 -83 -17 -151 -71 l-36 -28 -52 48 c-66 61 -126 91 -182 91 -61 0 -111 -34 -197 -133 l-32 -38 -60 65 c-70 75 -110 96 -177 96 -52 0 -48 2 -202 -104 -59 -41 -81 -50 -125 -54 -52 -4 -56 -3 -100 38 -60 56 -59 31 2 -45 53 -67 152 -139 213 -155 55 -15 106 3 210 76 45 31 100 67 122 80 37 21 43 21 69 8 15 -8 28 -19 28 -23 0 -19 -185 -181 -239 -209 -108 -57 -205 -59 -332 -7 -88 36 -98 46 -86 93 9 33 7 46 -16 96 -44 95 -213 256 -269 256 -10 0 -18 -4 -18 -8z m1416 -193 c4 -7 -23 -40 -65 -80 -61 -58 -77 -69 -107 -69 -18 0 -34 5 -34 10 0 16 90 110 125 131 34 21 70 25 81 8z m-73 -279 c33 -16 67 -30 75 -30 45 0 97 28 146 77 l54 54 11 -32 c6 -18 11 -48 11 -68 0 -35 -27 -182 -35 -190 -2 -2 -25 15 -51 38 -52 46 -108 67 -150 57 -15 -4 -49 -30 -77 -59 l-50 -52 -63 61 c-60 59 -110 84 -164 84 -20 0 -17 7 31 58 30 31 67 73 82 94 l28 36 46 -49 c25 -27 73 -62 106 -79z m-2403 -168 l21 -17 -38 -49 c-130 -165 -194 -220 -269 -232 -89 -13 -199 22 -254 80 l-24 27 33 100 33 100 52 -49 c67 -64 123 -92 181 -92 44 0 50 4 122 75 81 79 104 89 143 57z m441 -3 c19 -7 38 -15 43 -20 10 -8 -26 -70 -57 -100 -29 -27 -92 -25 -140 4 l-37 23 42 41 c62 60 92 71 149 52z m1869 -63 c0 -21 -156 -175 -185 -182 -14 -3 -32 -3 -41 0 -12 5 5 28 73 101 76 81 93 94 121 95 21 0 32 -5 32 -14z m319 -93 c-23 -89 -30 -205 -16 -256 l8 -28 -30 16 c-38 19 -103 19 -140 1 -15 -8 -46 -35 -69 -60 -23 -25 -45 -46 -48 -46 -3 0 -53 41 -110 91 -102 89 -128 103 -104 59 6 -12 9 -32 6 -45 -8 -30 -52 -83 -89 -105 l-29 -18 -82 81 c-45 45 -84 86 -86 92 -3 5 9 12 25 15 38 8 99 40 150 78 l40 30 61 -62 c102 -104 184 -129 259 -80 16 10 73 79 128 154 106 143 138 182 145 176 2 -3 -7 -44 -19 -93z m-3078 -189 c41 -36 84 -71 97 -77 48 -22 11 -100 -72 -152 -41 -25 -60 -30 -112 -30 -36 0 -68 5 -75 12 -21 21 -15 177 11 273 12 46 24 88 27 93 3 4 15 -5 27 -22 12 -16 56 -60 97 -97z m2000 -131 c53 -18 118 -68 106 -80 -17 -16 -150 -8 -187 11 -55 29 -111 77 -104 88 9 14 126 2 185 -19z" fill="#1c1c1c"/>
<path d="M4942 5063 c-13 -3 -36 -19 -52 -36 -16 -18 -54 -60 -85 -93 -31 -34 -65 -64 -75 -67 -25 -6 -60 13 -133 74 l-61 51 -28 -33 c-16 -18 -28 -37 -28 -41 0 -4 -22 -19 -50 -33 -89 -45 -198 -30 -267 37 -49 47 -49 28 -1 -33 71 -91 164 -179 215 -201 119 -55 280 -1 316 106 2 5 27 -10 57 -33 66 -50 116 -67 156 -54 17 6 49 35 79 74 81 103 129 149 158 149 44 0 78 -22 99 -64 26 -52 26 -99 -3 -238 l-22 -108 -45 45 c-55 54 -116 81 -154 66 -26 -10 -98 -124 -98 -155 0 -30 -30 -30 -63 1 -50 47 -108 88 -156 113 -36 18 -54 21 -94 16 -28 -4 -63 -14 -79 -22 -29 -15 -108 -107 -108 -127 0 -5 -37 28 -82 76 -65 67 -91 87 -120 92 -51 10 -69 2 -143 -65 -71 -65 -101 -78 -137 -59 -33 17 -38 28 -38 89 -1 110 -87 249 -221 356 -84 67 -109 70 -47 7 26 -27 57 -70 70 -98 35 -79 29 -138 -41 -390 -74 -264 -82 -331 -53 -434 35 -124 174 -296 279 -346 131 -62 256 -40 316 57 16 26 33 48 36 48 4 0 31 -25 61 -56 30 -30 62 -59 71 -64 11 -7 33 8 86 59 132 127 231 132 356 21 61 -54 60 -37 -1 37 -100 120 -193 199 -261 222 -93 31 -161 4 -249 -99 -34 -39 -63 -71 -64 -72 -2 0 -37 34 -78 77 -41 43 -66 75 -55 71 11 -4 45 -10 76 -13 119 -11 192 37 319 211 36 49 76 102 90 118 l26 30 76 -76 c49 -49 95 -85 129 -100 153 -70 192 -43 295 204 47 111 74 154 88 140 2 -3 -5 -66 -16 -140 -13 -88 -18 -172 -16 -241 3 -97 6 -110 38 -175 45 -89 196 -241 218 -220 4 4 -7 20 -25 34 -53 45 -63 78 -64 209 -2 127 32 397 76 610 l24 118 -26 45 c-53 92 -237 250 -356 306 -51 23 -68 26 -115 17z m-838 -756 c47 -8 76 9 144 84 67 73 96 84 135 55 17 -13 14 -19 -38 -92 -116 -162 -174 -206 -274 -208 -57 -1 -76 4 -131 32 -36 18 -78 43 -93 56 l-29 23 32 114 c18 63 34 117 36 121 2 3 46 -35 97 -86 62 -63 101 -95 121 -99z m734 133 c23 -10 42 -23 42 -29 0 -5 -18 -32 -40 -60 -37 -47 -44 -51 -82 -51 -26 0 -57 9 -85 26 l-44 25 20 27 c28 40 55 62 87 72 43 12 55 11 102 -10z m-860 -371 c37 -29 70 -55 73 -58 4 -3 10 -20 13 -37 15 -68 -97 -144 -209 -144 -33 0 -67 4 -74 9 -33 21 -24 188 16 335 l16 58 49 -55 c27 -31 79 -79 116 -108z" fill="#1c1c1c"/>
<path d="M1787 5053 c-4 -3 10 -16 30 -27 66 -37 78 -93 44 -201 -18 -57 -49 -135 -57 -144 -2 -2 -39 29 -81 70 -76 72 -125 99 -182 99 -38 0 -86 -26 -186 -101 -177 -135 -200 -151 -233 -165 -18 -8 -43 -12 -58 -8 -25 6 -26 9 -20 57 7 48 6 51 -50 123 -70 92 -162 167 -231 187 -28 9 -54 13 -57 10 -10 -11 -6 -23 7 -23 22 0 81 -49 99 -83 20 -38 25 -205 7 -286 l-11 -51 -30 61 c-51 102 -214 244 -309 269 -73 20 -150 -11 -196 -79 l-22 -33 -90 88 c-50 48 -97 92 -106 97 -33 18 -28 -4 8 -37 54 -49 52 -91 -13 -208 -28 -51 -50 -103 -50 -120 0 -22 15 -47 56 -94 l56 -64 -31 -36 c-74 -83 -81 -103 -81 -224 l0 -110 73 -82 c39 -45 88 -100 107 -122 54 -65 112 -114 155 -135 36 -17 76 -19 443 -24 l402 -5 61 -56 c53 -49 115 -82 129 -68 3 3 0 7 -6 9 -60 21 -68 88 -25 208 17 48 29 91 26 96 -16 24 18 -2 169 -135 90 -79 173 -149 184 -155 37 -20 46 -12 19 17 -37 39 -35 91 10 234 l14 47 37 -41 c62 -69 182 -167 236 -192 116 -53 188 -43 333 50 162 103 207 103 311 1 57 -56 67 -52 26 9 -66 100 -214 224 -288 243 -58 14 -110 -4 -216 -76 -92 -62 -186 -98 -235 -90 -84 14 -195 91 -195 136 0 36 -43 97 -137 192 l-75 76 50 31 c57 37 99 40 136 11 23 -18 26 -18 26 -4 0 26 -127 151 -176 174 -75 36 -115 27 -219 -47 -74 -53 -132 -75 -195 -75 -59 0 -90 11 -132 50 -19 18 -31 23 -42 16 -14 -8 -9 -18 34 -67 106 -121 212 -196 278 -196 45 0 123 27 172 61 l45 30 17 -21 c26 -32 23 -98 -12 -235 -17 -66 -32 -121 -34 -122 -2 -2 -50 37 -107 87 -211 183 -235 202 -282 231 l-48 30 41 -52 c36 -45 40 -56 39 -102 0 -29 -6 -74 -13 -102 l-11 -50 -40 53 c-22 28 -43 52 -46 52 -4 0 -10 -9 -14 -19 -6 -20 -15 -24 -71 -36 -28 -5 -32 -3 -54 39 -28 51 -32 21 49 326 23 85 49 187 57 225 9 39 18 76 20 83 3 9 25 -3 64 -35 92 -73 111 -83 160 -83 56 0 116 27 172 77 65 59 167 136 220 166 52 30 93 34 125 12 l21 -15 -30 -71 c-16 -39 -32 -95 -35 -125 -5 -50 -3 -58 29 -107 52 -76 183 -218 260 -279 78 -63 142 -88 218 -88 72 0 104 20 206 126 67 69 87 84 112 84 54 0 58 -20 22 -107 -18 -43 -37 -84 -42 -90 -7 -9 12 -37 68 -99 202 -222 312 -298 433 -298 75 0 95 9 214 91 92 63 82 65 204 -43 70 -62 86 -72 105 -65 12 4 24 13 26 19 2 7 -3 10 -11 6 -24 -9 -75 23 -94 59 -13 24 -17 55 -16 127 1 80 9 121 47 260 61 218 66 271 34 341 -30 64 -104 165 -155 209 l-36 32 84 84 c86 87 118 105 144 84 21 -17 29 -7 16 18 -13 25 -84 84 -128 106 -18 9 -55 16 -82 16 -45 0 -56 -5 -106 -46 l-56 -45 -32 32 c-58 57 -102 80 -164 86 -84 8 -147 -22 -218 -100 l-55 -60 -83 80 c-120 118 -144 119 -298 17 -81 -53 -145 -83 -180 -84 -14 0 -43 11 -63 25 -38 26 -56 31 -56 16 0 -4 30 -39 68 -76 90 -91 151 -119 241 -113 79 6 125 28 204 97 62 54 96 64 133 37 18 -14 17 -17 -26 -62 -71 -73 -195 -162 -252 -179 -97 -28 -170 -18 -293 41 -113 55 -109 49 -90 139 12 60 13 85 4 118 -15 58 -98 138 -170 164 -81 30 -95 34 -102 26z m1384 -261 c-16 -21 -51 -58 -76 -81 -42 -39 -50 -42 -82 -36 l-34 6 22 -30 c32 -43 125 -102 170 -108 45 -6 93 10 131 45 23 21 30 23 43 12 19 -16 45 -102 45 -149 0 -36 -37 -190 -49 -204 -4 -4 -31 22 -61 58 -55 67 -98 95 -146 95 -21 0 -46 -19 -113 -90 -103 -107 -128 -114 -180 -55 -17 20 -31 39 -31 44 0 4 -26 33 -57 65 -56 55 -57 58 -38 72 76 56 156 131 241 225 105 118 171 169 217 169 l29 0 -31 -38z m-2523 -128 c52 -36 11 -158 -70 -208 -71 -43 -188 -49 -188 -9 0 43 29 101 74 151 72 78 135 101 184 66z m1472 -107 c152 -145 239 -189 375 -190 53 0 93 5 119 16 46 20 56 16 56 -27 0 -29 -37 -156 -45 -156 -2 0 -28 24 -58 54 -40 40 -68 58 -105 70 -79 23 -126 4 -237 -94 -73 -64 -134 -99 -173 -100 -13 0 -45 10 -73 21 -57 25 -89 69 -89 122 0 52 36 160 86 257 24 47 44 91 44 98 0 6 3 12 6 12 4 0 46 -37 94 -83z m-1720 -175 c99 -96 123 -114 168 -128 42 -12 65 -14 110 -6 31 6 58 9 59 8 2 -1 -4 -33 -12 -71 -24 -117 -4 -169 104 -273 l66 -63 -330 6 -330 6 -55 27 c-61 30 -69 49 -50 106 6 19 25 53 41 76 l31 42 47 -53 c128 -144 148 -159 206 -159 31 0 60 13 129 55 l90 54 33 -20 c19 -12 36 -19 39 -16 7 6 -101 132 -150 175 -51 45 -84 42 -171 -14 -85 -55 -105 -60 -153 -42 -54 20 -52 42 7 79 28 18 51 37 51 42 0 6 -34 45 -75 88 -41 42 -75 82 -75 88 0 12 14 37 59 105 23 35 26 37 36 20 5 -11 61 -70 125 -132z m2924 -160 c3 -5 -8 -53 -24 -107 -20 -64 -30 -120 -30 -162 l0 -63 -40 20 c-68 35 -99 28 -182 -40 -93 -76 -149 -97 -225 -81 -30 6 -68 20 -84 32 l-29 21 29 36 c16 20 46 71 67 112 31 60 39 87 42 143 l4 69 67 -65 c75 -73 115 -97 164 -97 44 0 75 25 133 106 25 35 53 68 62 74 21 12 39 13 46 2z" fill="#1c1c1c"/>
<path d="M9099 5042 c5 -10 17 -25 26 -32 30 -25 58 -94 63 -155 4 -61 -17 -224 -43 -320 -39 -146 -57 -290 -52 -398 6 -107 6 -109 50 -180 66 -106 168 -220 239 -269 60 -40 67 -42 148 -46 150 -7 233 24 438 165 67 46 122 81 122 76 0 -15 129 -157 172 -190 53 -40 108 -44 171 -12 50 26 198 135 300 220 87 74 141 103 173 95 13 -4 24 -11 24 -16 0 -6 5 -10 10 -10 20 0 9 19 -37 70 -53 58 -117 106 -156 115 -37 10 -98 -21 -196 -98 l-84 -66 -27 37 c-50 69 -150 151 -204 167 -63 19 -81 19 -142 -2 -72 -24 -140 -71 -300 -206 -38 -32 -90 -69 -115 -82 l-46 -24 -26 25 c-17 15 -27 35 -27 52 0 37 40 119 84 170 43 53 45 74 8 133 -36 54 -186 199 -208 199 -12 0 -8 -9 15 -35 41 -47 39 -73 -8 -133 -44 -55 -81 -123 -81 -148 0 -25 80 -131 154 -204 36 -35 66 -67 66 -71 0 -16 -128 -62 -184 -66 -83 -7 -131 13 -153 64 -25 59 -11 210 36 406 21 89 45 196 52 237 7 41 13 77 15 78 1 2 36 -25 76 -60 97 -84 188 -125 306 -139 167 -20 258 20 419 183 l96 99 36 -34 c113 -105 193 -137 259 -103 28 15 123 111 205 209 54 64 85 77 122 53 44 -29 27 3 -32 60 -81 79 -125 106 -174 108 -37 1 -45 -4 -101 -62 -33 -34 -63 -62 -67 -62 -4 0 -36 30 -71 66 -72 73 -105 94 -147 94 -38 0 -66 -21 -158 -118 l-78 -82 -76 73 c-80 78 -125 107 -164 107 -13 0 -62 -23 -108 -51 -120 -73 -154 -89 -206 -98 -58 -11 -101 1 -130 36 -34 42 -29 5 5 -43 78 -106 186 -176 271 -176 64 1 100 17 216 96 99 68 126 76 160 50 19 -15 19 -17 -25 -56 -234 -211 -390 -253 -562 -149 l-63 39 -7 72 c-4 40 -17 92 -28 115 -28 58 -116 153 -189 203 -69 47 -76 50 -62 24z m1405 -221 c6 -10 -107 -136 -136 -152 -20 -11 -78 4 -78 20 0 9 99 104 130 125 26 17 75 22 84 7z m-111 -802 c62 -32 62 -39 -5 -86 -99 -69 -141 -86 -200 -81 -47 5 -78 24 -78 48 0 12 117 100 152 115 40 17 101 19 131 4z" fill="#1c1c1c"/>
<path d="M10979 4995 c49 -53 62 -83 63 -145 1 -46 -12 -81 -82 -210 -52 -98 -44 -131 64 -255 49 -56 49 -56 27 -71 -12 -9 -33 -39 -48 -67 -32 -63 -35 -141 -8 -214 42 -112 253 -377 317 -397 18 -6 167 -5 381 2 l352 11 15 -22 c44 -65 87 -83 74 -32 -4 17 3 38 22 69 16 25 32 45 35 46 3 0 20 -13 37 -30 l31 -29 189 6 189 6 47 -33 c34 -25 49 -31 57 -23 9 9 6 19 -10 39 -26 32 -28 107 -6 161 36 86 14 146 -91 244 -27 25 -58 56 -68 67 l-19 22 39 0 c34 0 47 -8 97 -55 32 -30 66 -55 77 -55 26 0 25 13 -2 25 -67 31 -79 117 -33 245 15 41 29 94 32 118 6 49 -7 70 -112 177 -36 36 -65 69 -65 73 0 4 23 31 50 60 41 42 57 52 83 52 18 0 38 -5 45 -12 9 -9 15 -9 23 -1 8 8 -12 33 -72 92 -125 123 -172 127 -273 23 l-49 -51 -68 64 c-56 52 -77 65 -121 75 -76 17 -113 -1 -207 -100 l-75 -80 -76 74 c-113 110 -152 112 -293 15 -89 -62 -128 -79 -181 -79 -45 0 -113 27 -135 53 -7 10 -22 17 -33 17 -16 0 -11 -10 29 -61 140 -179 278 -232 404 -156 30 18 80 54 112 80 65 53 97 65 134 48 l25 -11 -42 -50 c-54 -64 -125 -127 -171 -150 -87 -45 -284 -51 -370 -12 -37 17 -99 65 -99 76 0 2 7 21 16 42 29 69 11 101 -133 242 -75 72 -134 122 -146 122 -16 0 -13 -8 22 -45z m1355 -191 c39 -15 -103 -145 -167 -154 l-40 -5 54 -59 c63 -69 132 -116 169 -116 34 0 100 47 162 114 43 47 47 49 47 26 1 -14 -13 -65 -29 -114 -17 -49 -30 -97 -30 -108 0 -24 -12 -23 -35 2 -23 25 -35 25 -35 0 0 -24 -48 -39 -137 -41 l-61 -2 -82 87 c-45 47 -88 86 -96 86 -20 0 -18 -8 12 -48 l27 -34 -23 -52 c-12 -28 -28 -66 -35 -84 l-12 -34 -38 46 c-21 26 -43 45 -49 43 -6 -2 -9 -21 -8 -43 5 -69 -70 -139 -153 -145 -92 -6 -103 -2 -173 64 -37 34 -88 77 -113 94 -88 61 -242 80 -346 44 -49 -17 -53 -17 -53 -1 0 14 94 217 106 229 2 3 34 -26 69 -62 68 -70 142 -123 223 -159 39 -18 68 -21 167 -22 114 -1 123 0 180 29 67 34 194 150 295 271 117 140 155 167 204 148z m99 -669 c48 6 60 4 86 -14 38 -27 46 -66 26 -122 -9 -24 -22 -60 -28 -80 l-10 -36 -196 -7 -196 -8 -42 48 c-24 27 -43 51 -43 55 0 3 11 11 25 17 13 6 34 30 46 54 l22 42 53 -57 c56 -60 81 -73 70 -34 -21 68 -19 109 10 168 l28 59 47 -46 46 -46 56 7z m-944 59 c40 -11 67 -30 114 -76 124 -121 244 -178 349 -164 42 6 48 4 48 -11 0 -10 -13 -37 -29 -60 -21 -31 -31 -39 -42 -32 -13 9 -167 7 -580 -7 l-167 -6 -12 36 c-16 51 -14 128 5 165 l16 33 64 -69 c36 -37 65 -71 65 -75 0 -5 19 -21 42 -38 68 -50 131 -39 225 36 23 19 49 34 59 34 9 0 34 -19 56 -42 42 -45 58 -46 34 -1 -24 44 -148 185 -185 210 -59 40 -89 33 -191 -44 -48 -37 -92 -43 -128 -17 -31 21 -28 34 17 78 65 64 141 80 240 50z" fill="#1c1c1c"/>
<path d="M10493 4453 c-82 -56 -138 -82 -177 -83 -31 0 -85 29 -128 68 -15 14 -30 23 -33 21 -7 -7 221 -237 258 -259 17 -11 45 -20 60 -20 30 0 94 29 142 65 82 61 136 70 183 30 66 -55 56 -22 -20 71 -68 83 -158 154 -194 154 -13 0 -53 -21 -91 -47z" fill="#1c1c1c"/>
<path d="M3652 3620 c30 -25 39 -41 49 -88 12 -60 8 -101 -41 -427 -31 -198 -37 -357 -17 -426 24 -82 87 -170 206 -290 89 -89 113 -108 151 -117 97 -23 228 33 360 154 44 41 83 74 87 74 4 0 46 -38 94 -85 l86 -85 251 0 251 0 21 -30 c28 -40 40 -38 40 8 0 70 68 142 135 142 17 0 48 -9 69 -21 21 -11 40 -18 43 -15 8 7 -48 75 -100 123 -81 75 -162 104 -219 80 -40 -17 -88 -70 -88 -98 0 -27 -9 -24 -46 19 -33 37 -43 36 -57 -2 -1 -5 -25 -10 -52 -13 l-50 -4 -77 95 c-50 62 -97 107 -134 131 -51 33 -64 37 -123 37 -36 0 -79 -5 -95 -12 -41 -15 -113 -69 -229 -172 -91 -81 -101 -87 -113 -71 -30 40 -6 123 59 198 l33 38 36 -42 36 -43 38 42 c21 23 61 54 88 68 46 24 61 27 156 27 94 0 111 -3 160 -27 31 -15 90 -59 132 -98 76 -70 118 -93 79 -44 -12 15 -21 39 -21 53 0 28 80 194 93 192 4 0 37 -34 73 -76 37 -41 69 -75 73 -75 3 0 18 20 32 44 33 54 101 89 179 90 71 1 114 -24 145 -84 13 -25 59 -84 103 -133 188 -209 403 -350 597 -393 105 -23 214 -9 322 41 68 31 159 107 188 157 9 15 19 10 89 -44 73 -55 83 -60 118 -55 24 3 61 22 100 51 34 25 72 46 84 46 13 0 51 -23 85 -50 62 -50 96 -66 121 -58 7 3 -5 14 -27 25 -50 26 -69 48 -85 97 -23 71 4 285 47 369 24 47 83 219 83 241 0 18 3 16 19 -10 10 -17 47 -61 80 -97 l62 -66 -49 -54 c-28 -30 -62 -76 -77 -101 -23 -40 -27 -55 -23 -105 4 -54 8 -62 75 -142 102 -121 133 -153 182 -188 44 -31 45 -31 172 -31 l129 0 52 -40 c65 -49 125 -58 66 -10 -20 16 -23 27 -21 74 2 31 10 70 19 87 l16 31 39 -38 c36 -35 45 -39 112 -45 39 -4 130 -7 200 -7 l129 -1 36 -42 c21 -23 41 -48 45 -56 4 -7 15 -13 23 -13 11 0 12 4 4 19 -19 37 -12 110 17 162 l27 50 60 -61 c87 -86 138 -114 207 -115 45 0 64 6 98 28 50 33 92 113 99 189 4 44 1 52 -37 102 -57 74 -161 186 -172 186 -5 0 0 -15 11 -32 30 -50 28 -146 -6 -208 -21 -39 -36 -53 -75 -69 -26 -12 -58 -21 -71 -21 -64 1 -142 61 -270 210 -31 36 -59 62 -64 58 -4 -5 0 -16 9 -26 22 -24 21 -36 -2 -97 -11 -27 -23 -59 -26 -70 -6 -18 -10 -16 -39 20 -33 38 -33 39 -45 17 -11 -21 -17 -22 -170 -22 l-158 0 -51 63 c-65 80 -150 163 -158 154 -3 -3 3 -18 14 -34 35 -50 36 -69 4 -136 -16 -34 -31 -68 -33 -75 -3 -8 -34 -14 -97 -17 -51 -2 -108 -7 -127 -11 -34 -6 -35 -5 -35 23 0 41 49 112 156 223 50 52 101 110 113 128 l23 32 51 -43 c79 -66 146 -111 211 -142 105 -51 267 -34 341 35 20 19 21 18 88 -41 39 -34 78 -59 90 -59 21 0 20 2 -7 23 -26 21 -28 28 -24 68 3 24 12 61 21 82 l16 38 40 -26 c38 -26 44 -26 225 -30 l186 -3 35 -31 c20 -17 45 -31 56 -31 l20 0 -20 26 c-19 24 -21 40 -21 173 l0 146 19 -42 c11 -23 37 -59 60 -81 l40 -39 -24 -35 c-30 -44 -49 -119 -41 -158 22 -114 275 -362 467 -461 143 -72 407 -76 659 -8 95 26 237 98 318 161 l62 50 33 -25 c17 -14 70 -59 117 -101 75 -67 110 -89 110 -70 0 3 -11 15 -25 26 -37 29 -72 96 -79 153 -8 62 15 199 60 358 19 67 34 137 34 156 0 54 -36 115 -115 195 l-73 74 61 57 c78 73 113 89 145 69 19 -12 22 -13 22 0 0 23 -128 134 -176 152 -65 25 -103 13 -173 -51 l-59 -55 -38 46 c-53 65 -117 104 -171 104 -40 0 -49 -6 -144 -93 l-102 -93 -61 64 c-78 82 -136 117 -178 108 -18 -3 -65 -32 -106 -63 -144 -110 -203 -125 -286 -72 -27 16 -51 28 -54 24 -11 -10 56 -90 122 -146 74 -63 133 -85 200 -73 54 9 86 26 176 94 108 82 116 85 148 64 l26 -17 -95 -91 c-118 -112 -183 -147 -285 -154 -109 -7 -222 26 -268 77 -15 17 -19 34 -17 71 4 87 -83 219 -212 319 -30 22 -57 41 -60 41 -18 0 -3 -23 42 -65 53 -49 81 -98 81 -138 0 -14 -20 -54 -45 -89 -24 -35 -58 -87 -76 -117 l-32 -54 -19 38 c-11 20 -44 62 -75 93 l-55 57 53 48 c57 51 73 56 101 30 10 -9 20 -14 23 -11 12 12 -10 40 -76 97 -114 99 -183 105 -271 24 l-49 -47 -62 61 c-88 86 -105 93 -181 72 -27 -7 -65 -36 -127 -96 l-88 -85 -69 70 c-111 113 -191 127 -309 55 -143 -89 -161 -96 -216 -89 -28 3 -64 15 -79 26 -15 11 -30 20 -33 20 -33 0 116 -157 185 -194 39 -21 65 -28 108 -28 69 0 114 19 207 83 90 61 118 72 150 57 14 -6 25 -15 25 -19 0 -4 -37 -39 -82 -78 -193 -165 -345 -195 -528 -103 l-75 37 -6 53 c-5 37 -18 70 -44 109 -39 59 -178 203 -195 203 -18 0 -11 -16 21 -46 77 -73 77 -119 3 -261 -53 -101 -56 -111 -52 -165 l4 -57 -27 47 c-15 26 -53 76 -85 110 l-57 64 54 49 c61 55 87 66 118 49 12 -6 21 -7 21 -3 0 12 -141 149 -167 162 -56 29 -138 -1 -194 -72 l-32 -39 -67 67 c-74 73 -123 97 -176 85 -56 -13 -120 -57 -175 -120 l-53 -61 -65 65 c-75 73 -115 96 -166 96 -43 0 -63 -9 -135 -66 -125 -98 -219 -108 -305 -32 -19 16 -35 25 -35 18 0 -48 136 -179 215 -209 120 -45 155 -37 301 69 85 62 122 73 157 47 16 -11 10 -19 -55 -83 -127 -123 -204 -164 -310 -164 -110 0 -236 63 -291 146 -44 67 -230 254 -253 254 -14 0 -11 -7 18 -37 83 -88 96 -170 49 -313 -18 -52 -47 -126 -66 -165 -51 -107 -65 -145 -65 -178 l0 -30 -57 56 c-100 98 -156 127 -250 127 -68 0 -110 -18 -148 -61 l-30 -35 -100 103 c-56 57 -109 103 -119 103 -16 0 -16 -2 3 -26 30 -38 26 -84 -14 -164 -19 -38 -35 -76 -35 -85 0 -11 -13 -6 -47 19 -71 50 -146 85 -216 100 -34 8 -54 14 -45 15 32 2 130 51 195 97 36 25 128 111 206 190 140 142 192 179 230 165 15 -5 9 -16 -40 -67 -77 -81 -105 -99 -133 -84 -38 20 -35 1 6 -41 59 -61 151 -119 188 -119 44 0 68 19 208 163 129 132 151 145 189 111 10 -9 20 -11 23 -6 9 15 -128 138 -169 152 -52 17 -109 7 -152 -27 -19 -15 -47 -36 -60 -47 l-24 -19 -37 35 c-62 60 -116 88 -167 88 -58 0 -88 -16 -177 -92 l-71 -61 -21 29 c-41 57 -78 93 -124 124 -67 45 -116 39 -212 -26 -145 -99 -161 -107 -215 -112 -44 -4 -55 -1 -83 23 -18 15 -37 25 -43 23 -19 -6 162 -180 210 -201 97 -43 182 -19 314 88 71 57 106 68 141 42 17 -12 11 -20 -65 -89 -114 -104 -128 -114 -188 -138 -62 -24 -175 -27 -246 -6 -26 8 -70 30 -99 49 -43 29 -53 41 -64 82 -14 54 -50 109 -135 210 -70 83 -84 95 -111 95 -17 0 -14 -5 16 -30z m3218 -159 c0 -13 -128 -131 -156 -143 -16 -8 -28 -8 -34 -2 -16 16 131 154 164 154 14 0 26 -4 26 -9z m1760 -57 c-65 -66 -106 -94 -135 -94 -25 0 -17 18 33 72 57 62 98 88 137 88 29 0 29 -1 -35 -66z m1848 -36 c-49 -70 -116 -128 -147 -128 -16 0 -32 4 -35 8 -7 11 89 104 134 131 19 12 43 21 53 21 17 0 16 -3 -5 -32z m-1582 -190 c-2 -73 -5 -144 -5 -158 -1 -18 -4 -21 -12 -13 -8 8 -69 10 -210 6 l-198 -6 -71 66 c-68 64 -90 78 -90 57 0 -5 4 -10 9 -10 5 0 16 -16 25 -35 18 -36 16 -52 -14 -143 l-17 -52 -19 21 c-10 12 -36 35 -56 51 l-38 30 -10 -26 c-12 -34 -75 -74 -132 -84 -129 -25 -255 37 -409 201 -86 91 -116 109 -82 49 18 -31 17 -33 -5 -75 -13 -24 -44 -65 -71 -91 l-47 -46 -24 32 c-41 56 -27 111 62 251 l30 47 62 -58 c177 -166 345 -223 502 -172 120 38 182 78 287 183 l98 99 48 -45 c57 -54 138 -97 181 -97 44 0 77 20 145 89 33 34 61 61 63 61 2 0 1 -60 -2 -132z m-2161 50 c47 -44 101 -68 151 -68 31 0 46 9 111 72 59 58 76 69 83 58 6 -8 10 -24 10 -36 0 -20 -39 -141 -80 -246 l-23 -57 -20 25 c-11 15 -38 39 -60 55 -54 39 -101 39 -157 -2 l-42 -31 -32 30 c-83 80 -144 99 -217 68 -49 -21 -170 -142 -219 -220 l-42 -66 -38 48 c-91 114 -143 144 -253 143 -85 0 -160 -33 -207 -89 l-31 -37 31 70 c18 39 43 95 57 125 15 30 29 74 32 98 l6 42 80 -61 c190 -144 313 -169 476 -96 59 26 175 116 253 196 56 57 46 59 131 -21z m-2609 -166 c22 -11 59 -26 84 -33 50 -14 74 -29 47 -29 -24 0 -105 -43 -145 -77 l-33 -28 -52 48 c-69 65 -116 101 -123 94 -3 -2 6 -16 20 -30 35 -35 34 -80 -4 -140 -39 -63 -51 -114 -35 -160 15 -45 73 -124 125 -171 l40 -36 -43 -22 c-48 -25 -148 -31 -169 -10 -10 10 -13 67 -12 235 1 214 7 280 50 529 l6 37 103 -94 c56 -51 120 -102 141 -113z m6203 115 c67 -64 159 -112 193 -101 13 4 53 36 91 72 37 36 70 62 73 59 4 -4 9 -28 11 -54 5 -50 -13 -135 -49 -230 l-20 -54 -66 64 c-76 72 -127 102 -194 112 -59 9 -120 -17 -196 -83 -80 -70 -295 -232 -309 -232 -6 0 -20 15 -31 33 -42 69 -132 156 -195 187 -104 51 -270 58 -371 16 -37 -15 -56 -14 -56 4 0 8 121 192 140 213 4 4 36 -20 71 -55 132 -131 266 -194 409 -191 140 2 229 53 364 210 39 44 73 82 75 82 2 1 29 -23 60 -52z m-3725 -287 c-68 -70 -104 -95 -104 -74 0 14 85 101 122 127 70 46 64 30 -18 -53z m346 -76 c-14 -54 -19 -94 -15 -125 l6 -45 -58 4 c-58 4 -61 3 -108 -38 -88 -76 -113 -73 -227 24 -37 31 -69 56 -72 56 -3 0 -6 -11 -6 -24 0 -67 -157 -201 -273 -232 -126 -33 -228 -13 -414 82 -131 68 -156 85 -176 125 -13 29 -13 37 3 93 16 58 66 165 56 121 -18 -77 -17 -80 19 -130 56 -80 155 -174 225 -213 61 -35 71 -37 150 -37 69 0 94 4 133 23 55 28 129 98 210 199 31 39 61 74 65 77 5 3 31 -18 58 -45 94 -96 140 -103 233 -33 33 25 93 81 132 125 40 44 74 78 76 76 1 -2 -6 -39 -17 -83z m3642 53 l27 -22 -21 -94 c-17 -77 -19 -103 -10 -140 6 -25 10 -47 9 -48 -1 -1 -36 29 -77 67 -41 38 -77 69 -81 70 -3 0 -15 -20 -27 -45 -17 -35 -38 -56 -97 -94 -216 -141 -490 -201 -710 -156 -95 20 -230 76 -279 117 -36 30 -38 34 -34 79 9 90 100 185 202 210 106 25 265 -11 325 -75 l23 -24 -25 -16 c-13 -9 -51 -26 -83 -37 -106 -38 -210 -12 -288 70 -31 33 -46 39 -46 19 0 -22 203 -203 282 -250 54 -33 70 -38 124 -38 52 0 74 6 127 34 102 53 231 140 370 250 71 55 145 111 165 123 47 29 90 29 124 0z m-4454 -57 c17 -11 32 -23 32 -28 0 -23 -97 -114 -152 -141 -65 -33 -100 -37 -160 -20 -33 8 -38 14 -38 39 0 65 38 120 105 151 57 26 169 26 213 -1z m-1412 -230 c23 -11 49 -29 59 -40 18 -20 17 -20 -150 -20 l-169 0 42 31 c72 53 147 63 218 29z" fill="#1c1c1c"/>
<path d="M1770 3592 c0 -6 13 -20 29 -31 62 -44 79 -143 39 -226 -12 -25 -25 -45 -29 -45 -4 0 -24 21 -44 46 -51 62 -111 104 -149 104 -45 0 -84 -28 -162 -116 -100 -114 -139 -151 -168 -158 -25 -6 -71 9 -108 36 -9 7 -20 9 -24 6 -10 -11 90 -122 147 -164 85 -62 145 -56 218 20 19 20 39 36 43 36 5 0 15 -14 22 -32 16 -37 5 -97 -43 -223 -81 -214 -87 -298 -29 -407 37 -71 219 -265 237 -253 7 4 -6 23 -33 50 -80 77 -85 150 -22 351 24 77 52 172 61 210 l18 70 -34 64 c-18 35 -62 92 -97 127 -36 35 -61 67 -58 70 3 4 36 40 72 80 51 56 73 73 93 73 52 0 54 -11 16 -92 -45 -94 -55 -169 -30 -222 45 -93 245 -262 245 -206 0 6 -4 10 -8 10 -5 0 -18 9 -30 20 -42 40 -27 124 57 304 l41 89 58 -54 c31 -30 80 -71 108 -91 56 -41 178 -94 240 -103 50 -8 156 11 207 36 21 11 41 18 44 15 6 -6 -107 -115 -172 -165 -64 -49 -113 -65 -182 -58 -65 7 -185 61 -247 112 -72 59 -87 45 -30 -29 79 -103 281 -234 398 -258 53 -10 53 -10 46 -42 -4 -17 -12 -41 -18 -52 -13 -24 -78 -84 -92 -84 -5 0 -19 15 -31 33 -79 113 -160 178 -265 213 -69 22 -96 26 -157 22 -88 -6 -127 -26 -168 -87 -23 -36 -29 -55 -29 -101 0 -73 30 -122 134 -214 78 -69 105 -81 67 -29 -50 67 -36 163 31 209 31 22 42 26 46 15 23 -68 199 -208 299 -237 115 -33 241 0 337 90 l47 43 76 -78 c42 -44 85 -79 95 -79 10 0 49 32 87 71 l69 72 75 -64 75 -64 -32 -13 c-17 -7 -69 -50 -116 -96 -88 -86 -133 -113 -172 -102 -13 3 -53 33 -90 66 -69 63 -88 72 -88 43 -1 -10 -13 -36 -28 -58 -21 -30 -43 -46 -87 -64 -54 -21 -65 -22 -105 -12 -43 11 -81 34 -142 83 -69 55 -28 -26 63 -125 81 -89 182 -147 254 -147 72 0 139 26 179 70 20 22 36 47 36 55 0 22 6 19 58 -24 56 -46 115 -67 152 -53 14 6 62 44 107 86 90 82 122 102 168 107 108 10 116 -66 38 -339 l-15 -54 -21 20 c-109 98 -190 94 -243 -11 -15 -28 -28 -54 -30 -56 -2 -2 -22 13 -44 32 -72 61 -173 109 -235 109 -67 1 -107 -23 -155 -91 -19 -28 -38 -50 -42 -51 -4 0 -40 33 -81 74 -121 121 -166 122 -304 1 -41 -36 -77 -65 -82 -65 -4 0 -16 6 -27 14 -16 12 -19 27 -19 98 0 96 -20 148 -87 236 -48 62 -215 212 -236 212 -12 0 -12 -3 -2 -15 7 -8 11 -15 8 -15 -2 0 20 -25 48 -55 111 -117 112 -203 8 -515 -63 -189 -69 -212 -69 -290 0 -103 8 -120 123 -259 131 -159 248 -232 345 -217 65 11 129 43 164 83 30 35 32 36 55 21 12 -9 49 -42 81 -73 47 -45 61 -54 73 -44 8 6 14 17 14 23 0 44 135 139 218 152 49 8 106 -18 164 -74 21 -20 41 -33 44 -29 22 22 -179 225 -261 264 -107 49 -206 24 -307 -79 -32 -32 -59 -58 -61 -58 -2 0 -34 34 -71 75 -56 62 -63 73 -39 64 15 -6 64 -12 108 -13 130 -2 183 39 312 239 36 55 69 104 73 109 5 5 22 -7 38 -25 67 -76 203 -148 281 -149 37 0 83 40 111 96 28 58 134 234 137 230 3 -2 0 -21 -6 -42 -18 -68 -41 -242 -41 -312 0 -149 88 -293 227 -372 52 -30 85 -25 39 5 -49 32 -66 89 -66 216 0 63 7 155 15 204 9 50 24 140 35 200 43 255 44 267 26 322 -33 98 -167 252 -292 333 -44 28 -80 53 -82 55 -2 2 25 27 59 55 61 51 64 52 115 48 45 -4 63 -12 120 -56 73 -57 116 -71 72 -24 -89 95 -97 269 -22 522 32 109 39 167 25 217 -16 63 -75 157 -129 209 -52 50 -51 54 32 132 51 49 59 53 89 47 l32 -7 -20 23 c-85 103 -122 129 -185 129 -47 0 -87 -18 -147 -67 l-43 -34 -47 46 c-62 60 -130 95 -186 95 -56 0 -117 -38 -182 -114 l-49 -57 -54 61 c-71 80 -118 103 -192 98 -50 -4 -66 -11 -141 -65 -106 -76 -139 -93 -184 -93 -46 0 -73 14 -107 54 -38 43 -37 11 1 -40 60 -81 153 -152 224 -172 53 -15 111 2 186 55 178 125 186 129 225 104 l27 -18 -78 -78 c-142 -141 -201 -170 -343 -170 -89 0 -100 2 -172 38 l-77 37 6 54 c4 43 1 63 -16 100 -26 52 -131 170 -188 208 -43 30 -93 46 -93 30z m1414 -191 c3 -4 -28 -40 -68 -80 -58 -55 -80 -71 -103 -71 -16 0 -33 3 -36 6 -8 8 85 112 122 136 27 19 76 24 85 9z m-170 -210 c61 -62 152 -106 199 -96 45 10 91 40 131 87 33 38 35 39 45 20 19 -36 11 -189 -14 -260 -3 -8 -23 3 -60 32 -91 75 -150 72 -230 -12 l-43 -45 -53 53 c-61 59 -93 78 -149 88 l-39 7 76 88 c42 48 79 87 82 87 4 0 29 -22 55 -49z m6 -300 c0 -15 -129 -149 -164 -170 -30 -19 -86 -29 -86 -16 0 3 41 48 92 100 80 82 96 95 125 95 18 0 33 -4 33 -9z m336 -23 c-4 -13 -13 -48 -22 -78 -21 -74 -29 -210 -16 -249 l11 -31 -29 15 c-42 22 -116 19 -156 -6 -18 -11 -49 -39 -68 -62 l-35 -42 -23 21 c-13 11 -60 53 -106 94 -77 69 -112 85 -84 39 7 -11 10 -30 6 -42 -11 -37 -72 -104 -100 -111 -24 -6 -37 2 -111 76 -46 45 -83 86 -83 90 0 5 10 8 23 8 32 1 94 31 150 74 l48 36 55 -59 c59 -65 139 -111 189 -111 46 0 107 45 162 120 26 36 72 98 102 139 31 40 60 79 66 87 15 22 28 16 21 -8z m-1161 -379 c82 -15 191 -77 171 -97 -4 -4 -40 -7 -79 -7 -77 1 -124 19 -186 70 -52 45 -22 56 94 34z m366 -898 l23 -19 -77 -95 c-95 -117 -131 -149 -191 -172 -88 -34 -230 -1 -295 69 l-24 25 33 100 33 101 52 -49 c80 -76 160 -110 212 -90 15 6 60 42 99 80 76 73 97 81 135 50z m480 -18 c13 -13 -18 -78 -49 -106 -28 -25 -89 -24 -141 3 l-43 22 38 40 c22 22 48 44 59 49 26 11 122 6 136 -8z m-860 -385 c60 -41 64 -70 17 -123 -65 -75 -191 -112 -238 -70 -33 30 -26 178 15 321 l15 52 71 -74 c40 -40 94 -88 120 -106z" fill="#1c1c1c"/>
<path d="M10960 3552 c0 -5 10 -14 23 -21 36 -20 77 -85 77 -123 0 -19 -18 -79 -41 -134 -104 -251 -112 -326 -49 -450 42 -84 69 -116 221 -261 114 -108 157 -133 232 -133 44 0 62 5 96 30 43 32 59 59 63 110 1 17 5 30 8 30 3 0 36 -27 74 -61 77 -68 79 -67 123 11 14 26 41 57 59 69 29 20 37 22 68 11 20 -6 45 -23 56 -37 22 -29 35 -26 25 6 -9 29 -172 170 -224 193 -73 34 -127 8 -192 -92 l-17 -25 -86 83 c-75 72 -106 94 -106 77 0 -3 7 -17 16 -31 33 -50 -5 -132 -80 -171 -38 -20 -116 -11 -155 16 -16 12 -36 39 -45 61 -15 38 -15 46 4 133 11 50 36 138 56 194 l36 101 61 -62 c119 -120 253 -194 368 -203 128 -10 238 32 351 137 l74 68 24 -36 c36 -52 33 -120 -12 -257 -51 -155 -55 -185 -27 -241 35 -74 245 -272 265 -251 4 3 -8 18 -25 33 -88 74 -92 158 -15 393 17 51 22 85 18 108 -8 43 -73 131 -153 206 l-61 59 36 43 36 44 68 -58 c81 -70 152 -99 203 -82 18 6 53 29 77 51 40 35 46 37 57 23 31 -41 26 -76 -32 -229 -31 -82 -65 -171 -76 -199 -34 -93 -23 -180 35 -265 78 -116 266 -280 266 -232 0 4 -16 18 -36 32 -20 13 -48 42 -63 64 -23 36 -26 49 -25 130 0 82 5 104 48 226 70 200 79 230 73 273 -6 47 -63 135 -128 198 l-47 46 80 71 c84 74 108 84 140 55 16 -15 18 -15 18 0 0 20 -94 121 -137 148 -84 52 -142 43 -222 -33 l-52 -50 -36 41 c-19 23 -52 51 -74 61 -43 22 -128 27 -162 8 -27 -14 -153 -114 -162 -128 -10 -16 -19 -12 -56 21 -111 100 -160 125 -223 113 -20 -3 -68 -29 -108 -56 -86 -60 -163 -98 -199 -98 -14 0 -47 14 -73 30 -27 17 -53 29 -58 28 -13 -5 113 -122 171 -159 87 -56 208 -46 296 25 63 50 140 96 161 96 10 0 28 -8 39 -16 19 -15 17 -18 -70 -103 -143 -138 -257 -181 -407 -151 -69 13 -163 57 -192 88 -17 20 -17 23 -1 65 16 43 16 47 -1 83 -22 47 -234 264 -258 264 -9 0 -16 -4 -16 -8z m1410 -220 c0 -17 -148 -152 -166 -152 -48 1 -45 17 14 71 72 68 152 110 152 81z" fill="#1c1c1c"/>
<path d="M75 3450 c40 -41 40 -41 44 -132 3 -97 -13 -179 -85 -431 -33 -116 -34 -123 -34 -308 0 -221 -1 -218 118 -337 89 -90 143 -116 228 -110 56 3 84 14 208 76 78 40 146 72 150 72 4 0 22 -14 39 -32 48 -48 150 -92 225 -96 174 -12 354 80 436 221 62 107 70 252 20 356 -30 59 -149 191 -224 246 -57 42 -141 65 -233 65 -59 0 -81 -5 -153 -39 -147 -69 -248 -196 -276 -349 -10 -54 -9 -70 6 -119 10 -32 14 -59 10 -60 -5 -2 -42 -23 -83 -48 -41 -24 -79 -41 -84 -38 -25 15 17 134 82 235 23 34 41 68 41 75 0 26 -37 75 -147 197 -56 63 -75 69 -48 16 22 -43 14 -79 -35 -155 -47 -72 -70 -125 -70 -160 0 -30 21 -75 45 -95 8 -7 38 -39 66 -71 l50 -58 -38 -19 c-75 -37 -152 -56 -180 -43 -25 12 -26 13 -20 104 3 51 17 133 30 182 13 50 46 169 72 265 26 96 49 181 51 188 3 9 34 -14 83 -61 44 -40 95 -81 114 -90 47 -23 105 -21 146 4 43 26 228 167 301 230 183 156 246 179 326 119 45 -34 56 -37 47 -12 -17 47 -145 164 -212 195 -64 28 -126 19 -210 -33 -36 -22 -78 -49 -92 -61 l-26 -20 -68 70 c-80 83 -118 100 -167 75 -18 -9 -54 -31 -79 -49 -105 -75 -145 -82 -188 -34 -41 45 -49 18 -9 -28 19 -21 46 -55 62 -77 43 -57 110 -96 167 -96 44 0 53 5 106 53 93 85 113 96 142 78 11 -7 2 -20 -40 -58 -225 -206 -221 -203 -280 -203 -16 0 -48 9 -69 20 l-40 20 0 63 c0 39 -7 77 -19 104 -32 70 -198 233 -238 233 -4 0 11 -18 32 -40z m1156 -595 c43 -15 48 -20 58 -60 17 -69 13 -129 -14 -200 -13 -37 -27 -70 -30 -76 -4 -5 -38 20 -77 56 -88 80 -124 97 -213 103 -67 4 -74 2 -148 -37 -73 -38 -78 -40 -71 -19 32 107 174 227 292 248 61 11 145 5 203 -15z m-53 -351 l37 -16 -37 -32 c-43 -38 -147 -90 -210 -106 -24 -6 -67 -10 -97 -8 l-53 3 108 65 c107 64 192 109 207 110 4 0 24 -7 45 -16z" fill="#1c1c1c"/>
<path d="M5490 2273 c0 -5 16 -17 35 -26 40 -19 55 -49 55 -111 0 -51 -21 -113 -87 -261 -50 -109 -73 -182 -73 -227 0 -73 256 -350 380 -411 52 -26 77 -32 125 -32 80 1 112 19 217 128 79 81 90 89 115 83 60 -15 60 -19 -12 -167 l-23 -46 107 -115 c116 -125 219 -213 283 -242 53 -23 141 -31 194 -17 23 6 71 33 108 61 75 56 99 70 119 70 8 0 55 -36 103 -80 68 -62 94 -80 113 -78 32 4 40 28 9 28 -13 0 -34 7 -46 16 -40 28 -53 69 -53 162 1 90 4 106 65 332 49 177 50 219 7 296 -42 73 -92 138 -144 185 l-39 35 85 87 c88 89 106 99 150 82 30 -12 19 13 -25 57 -24 22 -67 52 -96 66 -75 34 -125 26 -190 -33 l-49 -44 -29 30 c-16 17 -49 44 -73 60 -39 25 -54 29 -115 29 -61 0 -77 -4 -122 -31 -28 -18 -69 -54 -90 -80 l-39 -49 -70 69 c-90 87 -111 101 -158 101 -42 0 -80 -17 -147 -65 -119 -86 -199 -104 -263 -60 -63 42 -52 7 20 -64 150 -147 278 -158 426 -36 88 73 102 79 138 65 16 -7 29 -16 29 -19 0 -12 -82 -96 -140 -143 -98 -81 -130 -93 -250 -93 -113 0 -92 -7 -268 83 -27 14 -32 21 -27 42 34 158 30 192 -32 261 -50 56 -223 135 -223 102z m1410 -220 c0 -15 -112 -134 -139 -147 -17 -9 -34 -11 -48 -5 -37 14 -35 -6 5 -42 114 -106 204 -121 287 -48 l34 30 16 -24 c49 -76 46 -189 -10 -345 -3 -8 -24 10 -54 46 -70 84 -96 102 -147 102 -41 0 -46 -4 -115 -79 -107 -119 -141 -126 -199 -43 -18 26 -55 70 -82 98 l-50 51 31 22 c63 45 131 109 237 225 81 88 122 125 159 142 52 25 75 30 75 17z m-1081 -274 c64 -64 168 -136 228 -159 81 -30 187 -37 249 -16 76 26 78 24 71 -41 -3 -32 -14 -77 -24 -100 l-19 -42 -47 50 c-50 53 -114 88 -160 89 -44 0 -95 -26 -169 -88 -39 -31 -83 -68 -99 -81 -60 -49 -185 -33 -229 29 -46 65 -32 145 56 326 l56 116 25 -24 c14 -13 42 -39 62 -59z m1211 -338 c0 -4 -13 -55 -30 -112 -18 -62 -30 -128 -30 -162 l0 -58 -32 23 c-22 15 -47 23 -74 23 -34 0 -50 -8 -105 -54 -80 -67 -130 -90 -195 -91 -68 0 -184 56 -146 72 17 6 74 94 104 158 21 45 30 82 31 122 1 32 3 58 3 58 1 0 33 -29 70 -65 124 -118 188 -121 271 -12 69 93 84 107 110 107 13 0 23 -4 23 -9z" fill="#1c1c1c"/>
<path d="M10966 2272 c-3 -5 12 -23 34 -41 41 -33 60 -77 60 -139 0 -20 -21 -75 -55 -142 -31 -60 -61 -125 -68 -146 l-13 -37 -22 59 c-47 131 -234 324 -365 379 -51 21 -75 9 -176 -90 -94 -92 -145 -121 -184 -106 -14 6 -54 37 -90 70 -35 34 -67 61 -71 61 -3 0 -6 -7 -6 -16 0 -33 -62 -105 -107 -125 -84 -36 -155 -19 -250 59 -97 79 -21 -50 92 -157 133 -126 293 -140 398 -35 15 15 30 38 33 51 6 23 6 23 46 -13 51 -45 115 -74 150 -67 15 3 62 37 105 77 104 96 133 115 186 122 39 6 46 4 65 -21 30 -38 28 -85 -9 -242 l-32 -132 -42 34 c-23 19 -58 42 -79 50 -34 14 -40 14 -79 -3 -34 -15 -47 -29 -70 -76 l-28 -57 -41 35 c-61 53 -189 116 -234 116 -72 0 -124 -37 -195 -143 -4 -5 -40 24 -80 66 -122 123 -171 126 -297 17 -82 -71 -98 -79 -130 -59 -16 10 -18 22 -14 90 4 70 2 84 -25 141 -17 35 -47 83 -68 108 -51 62 -206 200 -223 200 -12 0 -12 -3 -2 -15 7 -8 10 -15 6 -15 -3 0 11 -17 32 -37 21 -21 52 -58 68 -82 26 -41 29 -52 29 -130 -1 -91 -7 -117 -103 -401 -37 -110 -46 -148 -45 -205 0 -93 20 -133 134 -268 94 -113 143 -155 217 -188 95 -41 229 -11 287 65 32 42 30 43 131 -54 l66 -62 25 43 c37 65 51 79 128 115 104 51 162 43 244 -31 23 -21 44 -35 48 -32 20 21 -175 220 -253 258 -60 29 -150 28 -212 -2 -26 -13 -72 -49 -103 -81 l-56 -58 -67 75 c-53 59 -62 73 -41 65 14 -5 59 -10 100 -10 134 0 191 44 326 251 l71 108 31 -35 c35 -40 122 -101 182 -127 22 -10 62 -18 88 -19 62 -1 77 14 155 152 84 150 96 170 103 170 3 0 -2 -37 -12 -82 -10 -46 -23 -136 -28 -201 -9 -106 -8 -125 10 -182 35 -115 110 -206 216 -265 55 -31 64 -20 20 23 -48 49 -62 111 -53 246 3 58 13 143 21 189 34 189 45 250 51 302 8 64 23 101 24 57 0 -44 26 -89 89 -155 59 -62 148 -125 163 -116 4 3 -8 20 -27 38 -21 21 -35 43 -35 58 0 40 29 124 80 233 l48 104 54 -50 c137 -129 253 -189 378 -197 66 -4 85 -1 153 26 42 16 77 27 77 24 0 -7 -62 -65 -151 -142 -79 -68 -119 -84 -203 -78 -73 4 -198 59 -258 113 -35 32 -68 45 -68 27 0 -23 117 -141 199 -201 68 -49 204 -113 255 -118 43 -5 43 -5 36 -38 -12 -55 -81 -135 -115 -135 -6 0 -29 25 -50 56 -46 66 -113 128 -175 159 -200 102 -384 57 -421 -102 -19 -82 4 -128 115 -235 50 -49 92 -84 94 -79 2 5 -6 28 -17 50 -34 66 -25 142 22 182 48 42 53 41 83 -7 47 -74 174 -170 262 -199 84 -28 191 -17 271 25 35 19 77 50 94 70 l30 37 81 -84 c45 -46 87 -83 94 -83 7 0 45 34 85 74 l72 75 63 -55 c93 -80 98 -82 136 -46 108 104 166 106 280 12 26 -22 58 -40 70 -40 20 0 20 1 -5 23 -42 36 -59 73 -71 155 -14 93 5 238 48 380 38 126 37 190 -6 277 -21 42 -57 92 -92 127 l-57 57 62 66 c58 64 62 67 99 62 21 -3 38 -1 38 4 0 5 -4 9 -9 9 -4 0 -21 19 -37 42 -37 53 -107 98 -153 98 -43 0 -105 -29 -156 -73 l-38 -33 -51 50 c-54 53 -134 96 -179 96 -50 0 -99 -29 -168 -101 l-68 -71 -57 62 c-122 131 -186 133 -361 7 -80 -58 -100 -67 -159 -67 -36 0 -51 6 -83 35 -48 44 -56 44 -35 3 26 -51 134 -150 197 -182 89 -44 123 -37 268 63 65 44 129 83 143 87 26 6 66 -10 66 -28 0 -19 -159 -164 -221 -201 -118 -69 -235 -70 -369 -4 l-65 32 3 52 c3 40 -2 65 -19 100 -25 52 -153 192 -203 222 -41 25 -73 34 -80 23z m1407 -191 c15 -5 6 -18 -56 -79 -41 -40 -79 -72 -83 -73 -5 0 -16 -2 -25 -4 -9 -1 -22 1 -30 5 -10 7 -1 22 36 62 86 92 113 107 158 89z m-68 -285 c27 -14 66 -26 85 -26 44 0 116 43 156 94 28 35 29 35 41 13 15 -26 17 -122 4 -180 -6 -23 -13 -55 -16 -70 l-6 -28 -50 45 c-92 82 -156 81 -237 -6 l-42 -44 -56 54 c-64 62 -133 97 -175 88 -26 -5 -25 -3 22 47 28 29 67 71 87 95 l35 43 51 -49 c28 -28 73 -62 101 -76z m-2434 -206 c10 -6 19 -16 19 -23 0 -14 -94 -134 -153 -195 -63 -65 -108 -85 -193 -84 -85 1 -156 27 -202 75 l-30 32 28 81 c15 45 30 89 34 99 5 15 15 10 61 -34 62 -59 123 -90 176 -91 40 0 75 24 150 103 46 48 72 57 110 37z m481 -21 c18 -10 18 -11 -4 -51 -30 -52 -63 -78 -101 -78 -31 0 -117 36 -117 49 0 12 74 80 100 90 27 12 91 6 122 -10z m1863 1 c4 -6 -34 -51 -84 -100 -79 -80 -93 -90 -125 -90 -20 0 -36 2 -36 5 0 3 42 48 92 100 72 74 99 95 120 95 15 0 30 -5 33 -10z m329 -58 c-8 -26 -19 -67 -25 -92 -11 -50 -14 -186 -3 -213 6 -16 3 -16 -32 -1 -76 32 -155 2 -219 -82 l-26 -34 -109 95 c-60 52 -111 91 -114 86 -4 -5 -2 -12 4 -16 35 -22 -23 -135 -82 -159 -31 -13 -31 -13 -118 73 l-88 86 37 11 c53 16 110 48 151 82 l34 29 66 -65 c102 -102 175 -125 254 -78 38 22 67 56 136 157 56 83 134 178 141 173 4 -2 1 -26 -7 -52z m-3036 -339 c47 -28 48 -30 28 -77 -18 -44 -50 -73 -111 -102 -90 -43 -159 -28 -170 37 -9 51 3 157 26 246 10 40 19 76 19 79 0 4 37 -30 83 -75 45 -45 101 -94 125 -108z m1944 -23 c30 -11 69 -33 88 -49 l35 -29 -44 -12 c-24 -6 -58 -9 -75 -6 -46 9 -126 50 -166 85 l-35 30 72 1 c48 0 90 -7 125 -20z" fill="#1c1c1c"/>
<path d="M4360 2241 c0 -6 15 -17 33 -25 43 -18 85 -68 93 -112 8 -44 0 -266 -10 -283 -5 -7 -18 9 -34 41 -31 64 -145 181 -227 234 -109 70 -229 54 -280 -38 l-21 -37 -94 94 c-53 53 -103 95 -113 95 -16 0 -13 -7 17 -40 33 -37 42 -60 36 -100 -3 -23 -80 -172 -101 -196 -11 -11 -19 -25 -19 -30 0 -6 24 -37 53 -70 88 -99 85 -87 36 -142 -61 -67 -109 -164 -109 -218 0 -48 21 -79 143 -219 110 -125 195 -205 235 -222 30 -12 96 -16 342 -19 168 -2 351 -6 408 -9 l103 -5 47 -46 c43 -42 96 -74 122 -74 18 0 11 17 -10 23 -22 6 -40 44 -40 87 0 16 14 66 30 111 17 45 28 89 25 98 -7 18 -27 34 190 -156 147 -129 205 -170 205 -145 0 5 -11 17 -25 26 -32 21 -33 71 -4 176 48 172 48 161 1 224 -24 31 -70 86 -104 122 l-62 66 24 19 c69 53 113 57 158 16 l22 -20 0 21 c0 25 -124 153 -173 178 -56 30 -107 23 -179 -24 -180 -118 -274 -132 -364 -52 -35 30 -54 32 -54 4 0 -18 151 -169 209 -209 40 -27 52 -30 121 -30 71 0 81 3 137 38 34 20 65 37 70 37 11 0 29 -34 37 -69 4 -21 -56 -286 -68 -298 -4 -4 -82 60 -273 224 -46 40 -103 82 -126 94 l-42 21 31 -33 c58 -62 66 -105 42 -210 l-12 -52 -41 48 -42 47 -26 -26 c-57 -57 -133 -17 -131 69 1 22 13 83 27 135 67 239 107 397 107 417 0 39 19 35 82 -17 85 -71 112 -84 165 -76 62 8 105 34 213 125 52 45 127 97 167 117 l72 37 42 -21 c24 -12 45 -19 48 -17 8 9 -73 96 -132 143 -51 40 -65 46 -117 50 -68 5 -82 -1 -204 -94 -225 -172 -243 -182 -292 -170 -24 6 -25 9 -19 54 6 43 3 52 -26 92 -68 95 -144 167 -214 203 -42 21 -105 32 -105 18z m-49 -281 c22 -12 26 -70 8 -117 -26 -69 -113 -126 -196 -127 -72 -1 -81 10 -60 76 17 55 97 151 141 168 30 12 84 12 107 0z m-94 -409 c48 -14 124 -14 157 -1 30 11 30 14 12 -71 -24 -114 -2 -172 102 -271 l59 -56 -66 -4 c-36 -2 -185 0 -331 3 -228 5 -270 8 -300 23 -50 26 -70 46 -70 70 0 30 43 117 68 140 21 18 22 18 49 -15 58 -70 139 -152 165 -165 53 -27 95 -15 207 60 61 42 69 43 104 16 68 -54 29 14 -65 112 -104 108 -112 109 -248 23 -60 -39 -111 -45 -148 -19 -33 23 -27 36 28 72 28 18 50 37 50 41 0 5 -35 46 -78 92 l-78 83 32 53 c18 30 37 59 43 66 8 10 40 -17 140 -114 97 -96 139 -130 168 -138z" fill="#1c1c1c"/>
<path d="M8557 2184 c-112 -124 -145 -154 -167 -154 -14 0 -54 25 -96 60 -41 33 -78 61 -83 62 -5 2 -23 -16 -40 -39 -17 -23 -50 -53 -73 -65 -84 -43 -213 -21 -266 47 -22 28 -32 32 -32 12 0 -20 162 -199 207 -229 47 -31 103 -48 158 -48 72 1 174 62 196 118 9 23 9 22 60 -17 61 -49 116 -68 161 -55 24 7 51 34 108 109 87 114 116 130 176 101 25 -12 41 -29 56 -64 21 -46 21 -48 4 -147 -9 -55 -22 -121 -27 -148 l-11 -48 -21 28 c-46 59 -98 92 -148 93 -44 0 -64 -20 -108 -112 -18 -38 -36 -68 -40 -68 -4 0 -39 25 -77 56 -38 30 -86 64 -106 75 -41 21 -120 25 -165 8 -34 -12 -87 -62 -114 -106 l-20 -32 -82 83 c-115 117 -155 122 -252 29 -82 -78 -113 -88 -158 -53 -22 17 -25 27 -24 78 1 110 -85 247 -224 358 -39 31 -73 53 -76 50 -3 -3 17 -30 45 -60 54 -60 82 -124 82 -191 0 -22 -28 -140 -61 -260 -99 -355 -95 -455 28 -618 126 -168 214 -222 350 -215 83 4 108 18 162 91 l35 46 68 -65 c38 -35 72 -64 76 -64 4 0 34 27 67 61 67 68 92 84 158 99 64 14 129 -8 195 -65 80 -71 66 -38 -38 84 -47 56 -133 127 -185 153 -47 24 -110 31 -152 17 -42 -13 -142 -103 -175 -156 l-20 -34 -18 28 c-9 15 -34 44 -54 63 -20 19 -43 45 -51 57 -14 21 -14 21 18 12 82 -23 175 -4 237 48 40 34 129 141 188 223 66 93 55 91 116 23 74 -81 148 -130 219 -145 51 -11 61 -10 90 5 19 10 46 40 64 70 25 43 93 193 116 260 7 18 34 33 43 24 3 -3 -1 -50 -10 -104 -23 -147 -30 -280 -17 -347 15 -82 82 -186 166 -258 37 -32 71 -58 76 -58 16 0 10 19 -10 30 -11 5 -29 26 -42 46 -51 82 -32 369 52 791 l20 102 -22 42 c-11 24 -60 80 -108 127 -139 136 -250 202 -337 202 -41 0 -49 -4 -87 -46z m-801 -699 c55 -26 98 -9 153 59 60 73 93 92 132 76 16 -7 29 -16 29 -21 0 -5 -19 -35 -43 -67 -126 -172 -176 -212 -271 -219 -71 -6 -116 10 -210 72 l-55 36 15 52 c8 29 24 84 36 124 l21 71 78 -83 c44 -45 95 -91 115 -100z m764 120 c37 -19 37 -25 3 -76 -45 -68 -92 -80 -163 -43 -53 28 -53 29 -36 61 33 65 129 93 196 58z m-981 -266 c24 -28 77 -77 119 -110 65 -51 76 -64 79 -95 3 -29 -2 -41 -29 -68 -47 -46 -139 -79 -202 -72 -27 3 -53 11 -58 18 -8 14 -13 87 -9 153 2 52 41 225 49 225 4 0 27 -23 51 -51z" fill="#1c1c1c"/>
<path d="M0 2085 c0 -9 8 -32 19 -53 10 -20 21 -54 25 -74 7 -37 -15 -246 -34 -323 -5 -22 -10 -167 -10 -323 l0 -282 86 -95 c104 -115 161 -160 227 -180 55 -16 81 -13 148 21 56 28 94 71 110 124 7 22 15 40 18 40 3 0 33 -30 65 -66 66 -74 108 -104 147 -104 14 0 57 20 95 45 74 48 95 53 114 30 15 -18 30 -20 30 -3 0 10 -74 102 -121 148 -64 66 -116 67 -192 5 -31 -25 -64 -45 -74 -45 -37 0 -60 27 -67 79 -3 27 -19 74 -35 106 -20 38 -24 54 -14 51 45 -18 93 -17 135 1 l44 20 43 -38 c23 -21 64 -49 90 -62 34 -16 85 -63 167 -152 66 -70 135 -141 155 -157 73 -59 206 -60 347 -3 88 36 130 33 182 -10 41 -34 70 -45 70 -26 0 5 -16 19 -36 32 -47 29 -91 90 -99 139 -9 54 16 169 76 347 27 81 49 163 49 183 -1 67 -78 189 -165 261 l-45 37 43 34 c69 57 103 71 140 59 17 -6 39 -19 49 -28 17 -15 18 -15 18 1 0 16 -61 89 -125 149 -78 74 -152 76 -237 8 -118 -94 -162 -123 -205 -138 -43 -15 -48 -15 -80 2 -18 10 -36 15 -39 12 -8 -8 66 -97 119 -142 45 -39 116 -64 155 -57 14 3 53 24 88 47 l63 43 21 -44 c24 -48 23 -60 -12 -177 -23 -76 -32 -87 -50 -57 -18 30 -153 127 -186 135 -35 7 -99 -15 -158 -56 -25 -17 -46 -29 -48 -27 -15 25 -90 100 -125 126 -92 67 -178 34 -291 -110 -111 -142 -161 -178 -250 -178 -50 0 -83 15 -150 69 -55 45 -49 17 11 -47 105 -111 130 -224 75 -336 -24 -49 -36 -61 -74 -78 -49 -22 -129 -21 -157 2 -27 22 -13 186 38 450 14 69 28 150 31 180 11 86 17 88 69 21 60 -78 117 -116 172 -116 58 0 127 48 283 198 175 169 233 202 299 170 18 -8 38 -24 44 -34 11 -21 29 -26 29 -8 0 17 -149 167 -192 195 -24 15 -53 24 -77 24 -44 0 -88 -32 -251 -184 -98 -91 -217 -173 -265 -182 -20 -3 -44 -1 -62 8 -26 13 -28 18 -25 60 3 54 -9 83 -76 178 -82 115 -162 192 -162 155z m1086 -576 c8 -14 -176 -192 -253 -245 -29 -20 -60 -34 -72 -32 -17 2 4 29 117 146 120 124 141 142 169 142 18 0 35 -5 39 -11z m415 -76 c4 -4 -8 -59 -27 -121 -37 -123 -43 -199 -19 -246 19 -36 19 -36 -9 -36 -13 0 -66 -16 -117 -36 -166 -64 -238 -57 -340 35 l-54 49 47 12 c50 13 86 42 269 216 126 120 166 147 208 140 19 -3 38 -9 42 -13z" fill="#1c1c1c"/>
<path d="M5985 1117 c-33 -18 -80 -46 -105 -63 -117 -80 -202 -93 -298 -45 -31 16 -66 39 -77 51 -11 12 -28 26 -39 32 -37 20 48 -84 114 -139 130 -109 200 -143 289 -143 65 1 106 18 217 90 144 93 204 92 295 -7 22 -24 43 -42 47 -39 12 13 -77 124 -153 189 -133 116 -188 129 -290 74z" fill="#1c1c1c"/>
<path d="M1750 827 c0 -2 16 -21 36 -43 47 -50 64 -91 64 -153 0 -41 -10 -69 -56 -156 -78 -149 -76 -169 23 -285 61 -71 63 -75 45 -90 -23 -19 -62 -74 -62 -89 0 -8 92 -11 312 -11 l311 0 -24 26 c-45 50 -141 114 -192 129 -78 23 -219 21 -270 -4 -22 -11 -43 -19 -45 -16 -13 12 100 255 119 255 5 0 9 -4 9 -8 0 -18 109 -117 175 -160 104 -67 162 -85 275 -86 89 -1 101 2 162 32 79 39 180 130 301 272 106 125 138 150 189 150 21 0 38 -4 38 -8 0 -9 -93 -99 -133 -129 -18 -15 -37 -20 -57 -16 -17 2 -30 1 -30 -3 0 -4 21 -32 47 -62 57 -66 125 -112 168 -112 39 0 108 48 161 112 22 26 42 47 47 47 14 2 7 -42 -23 -131 -16 -49 -30 -100 -30 -114 0 -29 -11 -31 -35 -4 -21 24 -35 26 -35 5 0 -23 -38 -37 -121 -42 l-78 -6 -89 93 c-59 63 -92 91 -101 86 -10 -6 -7 -15 12 -35 37 -40 38 -54 6 -121 -16 -34 -29 -68 -29 -76 0 -24 -17 -15 -50 26 -40 51 -61 53 -53 6 4 -25 -1 -44 -17 -70 l-21 -36 404 0 405 0 7 38 c4 20 18 66 32 101 36 89 26 115 -82 226 l-85 86 42 49 c53 61 88 78 131 62 17 -6 33 -10 35 -7 7 7 -46 66 -109 122 -97 85 -149 82 -238 -12 l-49 -52 -54 54 c-85 86 -169 114 -236 79 -16 -8 -60 -49 -100 -90 -40 -42 -75 -76 -80 -76 -4 0 -34 27 -67 61 -112 114 -159 117 -300 22 -95 -63 -140 -83 -187 -83 -39 0 -97 26 -131 57 -19 19 -30 24 -38 16 -8 -8 15 -38 83 -106 185 -190 264 -192 486 -12 52 42 85 52 117 35 l24 -13 -22 -31 c-42 -59 -138 -145 -190 -170 -28 -14 -89 -30 -134 -37 -127 -19 -234 6 -317 74 -28 23 -28 24 -12 55 32 63 16 114 -65 199 -88 93 -219 200 -219 180z" fill="#1c1c1c"/>
<path d="M5508 777 c35 -36 44 -53 51 -98 10 -61 10 -60 -67 -219 -100 -204 -96 -247 33 -378 62 -61 89 -82 109 -82 l26 0 -20 20 c-26 26 -26 79 -1 151 27 79 98 229 108 229 5 0 27 -18 48 -41 113 -116 254 -189 380 -197 72 -4 88 -1 159 27 l80 30 -65 -65 c-35 -36 -90 -85 -122 -110 l-59 -44 184 0 184 0 63 65 c42 44 71 65 86 65 41 0 38 -19 -10 -75 l-47 -55 166 0 165 0 48 62 c52 68 63 63 39 -15 l-14 -47 114 0 113 0 17 56 c35 121 0 234 -110 351 l-59 63 54 58 c66 71 74 76 110 68 16 -3 29 -2 29 2 0 4 -21 31 -46 60 -50 58 -107 92 -152 92 -37 0 -121 -42 -157 -79 l-28 -30 -64 59 c-64 58 -128 90 -183 90 -39 0 -109 -49 -170 -118 l-54 -61 -35 42 c-80 94 -130 127 -193 127 -43 -1 -95 -27 -192 -96 -43 -31 -95 -60 -115 -65 -52 -12 -105 5 -135 43 -29 38 -44 32 -22 -9 26 -49 122 -138 186 -172 97 -52 130 -45 288 63 70 47 134 86 143 86 9 0 27 -8 39 -18 l22 -18 -96 -91 c-114 -110 -187 -149 -292 -159 -76 -7 -159 15 -242 62 -37 22 -42 29 -35 47 4 12 7 39 6 61 -2 51 -74 157 -156 229 -71 62 -96 77 -128 77 -21 0 -19 -4 19 -43z m1382 -157 c0 -4 -34 -40 -75 -79 -73 -69 -113 -88 -130 -61 -9 14 90 125 126 143 29 14 79 12 79 -3z m-78 -276 c26 -13 65 -24 86 -24 46 0 118 43 151 89 12 17 26 31 31 31 5 0 14 -18 20 -40 8 -30 7 -64 -5 -141 -8 -56 -16 -104 -18 -106 -2 -1 -12 5 -23 15 -96 87 -138 102 -200 72 -22 -11 -56 -39 -74 -61 l-32 -41 -57 55 c-66 65 -108 88 -161 89 l-39 0 87 94 87 94 50 -51 c27 -28 71 -62 97 -75z" fill="#1c1c1c"/>
<path d="M7300 812 c0 -5 13 -18 30 -30 17 -13 33 -38 39 -59 13 -47 14 -144 2 -209 -13 -71 -49 -319 -56 -389 -3 -33 -8 -75 -11 -92 l-5 -33 99 0 99 0 7 78 c6 72 43 324 51 348 1 6 45 -29 97 -78 102 -96 174 -140 264 -162 40 -10 50 -15 30 -15 -32 -1 -131 -51 -167 -85 l-24 -22 -84 73 c-74 64 -101 83 -101 69 0 -3 14 -18 30 -34 36 -37 37 -55 5 -116 -14 -26 -25 -49 -25 -52 0 -2 225 -4 500 -4 l500 0 18 36 18 36 28 -36 c27 -36 27 -36 104 -36 53 0 94 6 130 20 69 27 151 27 185 0 22 -17 40 -20 145 -20 l120 0 61 136 c33 74 61 148 61 165 0 16 2 29 4 29 3 0 44 -30 93 -67 150 -113 260 -147 377 -117 108 28 174 71 309 200 89 85 70 85 164 2 68 -61 137 -82 186 -57 12 6 49 38 83 71 54 53 62 57 74 43 17 -20 9 -55 -52 -219 l-43 -114 -32 38 c-18 21 -53 48 -78 60 -52 25 -84 19 -137 -25 l-30 -26 -43 40 c-118 109 -198 99 -332 -42 -117 -124 -121 -117 60 -117 132 0 157 2 168 17 19 22 90 73 103 73 5 0 -10 -20 -34 -45 l-44 -45 178 0 c159 0 180 2 192 18 13 16 13 16 14 -1 0 -16 10 -17 117 -15 l117 3 35 101 34 102 -26 53 c-14 30 -54 85 -88 122 -70 78 -71 72 24 148 40 32 52 37 68 28 46 -24 35 1 -28 64 -89 88 -107 99 -154 99 -46 -1 -88 -25 -142 -80 l-39 -40 -41 47 c-53 58 -63 67 -111 92 -71 38 -145 8 -248 -98 l-67 -70 -63 64 c-115 117 -174 125 -285 41 -82 -62 -104 -75 -151 -87 -55 -15 -124 2 -169 42 -65 57 -51 7 20 -70 85 -92 182 -143 272 -143 44 0 60 7 129 53 43 28 98 65 121 80 32 21 49 26 69 21 49 -12 41 -31 -39 -106 -183 -171 -295 -197 -468 -110 -71 36 -89 51 -131 108 -89 120 -225 254 -259 254 -5 0 11 -22 36 -49 103 -110 97 -214 -25 -486 -25 -55 -48 -108 -52 -118 -5 -15 -15 -9 -63 38 -68 67 -137 105 -207 112 -74 8 -134 -12 -175 -56 l-33 -37 -102 103 c-57 57 -110 103 -120 103 -14 0 -13 -5 8 -33 34 -44 33 -62 -8 -149 -19 -40 -37 -81 -40 -91 -5 -17 -11 -15 -54 16 -71 52 -148 87 -203 94 -49 6 -79 23 -40 23 29 0 140 61 209 114 33 25 108 97 168 161 122 131 180 175 233 175 l35 0 -74 -75 c-81 -81 -99 -92 -129 -76 -39 21 -30 -7 17 -51 116 -108 186 -133 248 -85 16 12 83 78 150 145 67 68 129 122 139 122 10 0 27 -7 37 -17 10 -9 21 -13 25 -9 11 11 -105 121 -151 145 -73 36 -112 28 -198 -42 l-54 -44 -49 44 c-125 113 -197 110 -336 -16 l-66 -60 -36 49 c-48 64 -129 128 -173 136 -46 8 -78 -6 -199 -87 -112 -76 -170 -96 -219 -75 -17 7 -37 20 -45 29 -7 10 -20 17 -29 17 -17 0 126 -154 176 -189 19 -13 62 -28 97 -34 59 -10 66 -9 118 16 30 15 90 54 132 87 43 33 84 60 91 60 19 0 64 -22 64 -31 0 -10 -164 -154 -210 -185 -115 -77 -302 -62 -427 34 -20 14 -33 33 -33 46 0 68 -198 323 -252 326 -5 0 -8 -4 -8 -8z m3205 -256 c-15 -19 -45 -50 -68 -69 -108 -87 -131 -68 -37 31 57 59 76 72 100 72 l31 0 -26 -34z" fill="#1c1c1c"/>
<path d="M10960 803 c0 -4 19 -26 42 -50 36 -36 42 -49 46 -95 4 -49 0 -61 -52 -161 -83 -159 -76 -210 51 -347 l66 -71 -24 -27 c-13 -14 -31 -32 -39 -39 -12 -10 20 -12 167 -13 l182 0 23 34 23 34 39 -34 39 -34 349 0 c299 0 349 2 354 15 5 13 8 13 27 0 18 -12 65 -15 259 -15 l238 0 0 53 c0 28 2 104 4 167 3 115 3 115 -29 165 -17 28 -51 67 -74 88 l-42 38 36 35 c20 19 50 41 66 50 28 14 32 13 56 -6 14 -11 28 -18 30 -16 9 8 -27 52 -84 102 -70 61 -76 64 -122 75 -52 12 -106 -6 -157 -53 l-44 -41 -69 67 c-65 62 -72 66 -116 66 -67 0 -109 -24 -199 -111 l-78 -77 -42 51 c-61 75 -135 117 -206 117 -47 0 -66 -6 -116 -37 -172 -105 -211 -114 -298 -68 -25 13 -46 21 -46 16 0 -5 32 -43 70 -84 49 -52 90 -85 132 -106 102 -51 156 -41 307 58 95 62 131 73 165 48 16 -12 11 -19 -66 -84 -193 -164 -346 -200 -515 -120 -89 42 -103 55 -103 99 0 46 -18 83 -76 159 -59 77 -174 177 -174 152z m1410 -169 c0 -12 -116 -126 -142 -140 -28 -14 -68 -19 -68 -8 0 13 85 100 123 127 36 24 87 37 87 21z m-101 -269 c98 -61 142 -53 235 40 35 36 66 65 70 65 3 0 6 -67 6 -150 0 -143 -1 -149 -19 -142 -11 4 -105 3 -210 -2 l-191 -8 -76 71 c-42 39 -80 71 -85 71 -5 0 3 -18 17 -40 22 -33 25 -46 19 -82 -3 -24 -14 -62 -23 -85 l-17 -42 -49 44 c-27 25 -52 45 -55 45 -4 0 -14 -11 -21 -25 -18 -34 -66 -62 -127 -75 -122 -26 -251 34 -398 186 -50 52 -96 94 -103 94 -10 0 -9 -5 2 -22 32 -45 11 -95 -71 -174 l-46 -45 -23 28 c-42 51 -26 114 65 259 l28 43 39 -40 c21 -22 66 -61 99 -86 157 -118 292 -149 442 -100 101 33 170 79 275 184 l92 93 41 -39 c22 -21 60 -51 84 -66z" fill="#1c1c1c"/>
<path d="M3680 741 c0 -6 13 -20 30 -32 78 -58 68 -201 -40 -579 -16 -58 -30 -111 -30 -117 0 -10 27 -13 103 -13 l102 0 39 148 c22 81 41 150 43 155 3 4 38 -24 79 -62 80 -74 142 -111 190 -111 46 0 145 68 394 271 125 101 186 138 226 139 12 0 45 -15 73 -34 47 -32 51 -33 51 -14 0 27 -131 152 -192 184 -91 46 -168 28 -296 -68 l-54 -40 -16 23 c-22 31 -120 122 -140 131 -36 14 -62 6 -138 -43 -108 -71 -141 -84 -173 -69 -14 6 -31 20 -39 31 -14 20 -32 26 -32 10 0 -27 155 -189 197 -207 67 -29 96 -20 184 56 78 68 100 78 127 62 16 -11 -224 -232 -270 -249 -38 -14 -91 -7 -130 15 -26 15 -28 21 -28 77 0 45 -7 74 -25 112 -39 78 -235 264 -235 224z" fill="#1c1c1c"/>
<path d="M0 725 c0 -9 9 -34 20 -55 33 -65 35 -138 6 -303 -17 -99 -26 -185 -26 -258 l0 -109 85 0 84 0 11 38 c5 20 20 89 32 152 11 63 22 116 24 118 1 2 26 -20 56 -48 60 -58 163 -122 223 -139 22 -6 83 -14 136 -18 75 -5 106 -2 146 11 75 25 157 86 249 183 l80 86 85 -67 c94 -74 142 -93 193 -76 33 10 159 133 224 216 17 23 46 48 64 57 30 14 35 14 56 1 13 -9 27 -13 30 -9 10 10 -130 139 -171 159 -67 31 -94 23 -164 -48 l-62 -64 -77 74 c-97 93 -135 108 -192 73 -22 -13 -72 -60 -111 -105 l-72 -81 -72 72 c-40 39 -93 82 -120 94 -56 27 -69 24 -167 -37 -98 -62 -169 -93 -227 -99 -48 -5 -54 -3 -83 26 -69 69 -54 12 19 -71 56 -64 151 -125 205 -133 66 -10 128 13 239 88 98 67 129 77 169 56 19 -11 19 -12 -13 -46 -36 -37 -188 -152 -229 -173 -39 -21 -121 -40 -170 -40 -65 0 -117 17 -181 58 l-56 36 -7 70 c-8 91 -32 139 -113 226 -71 77 -123 113 -123 85z m1354 -181 c13 -5 9 -15 -22 -53 -50 -63 -105 -111 -129 -111 -11 0 -28 6 -39 14 -18 14 -18 16 21 57 42 44 121 99 141 99 7 0 19 -3 28 -6z" fill="#1c1c1c"/>
<path d="M5075 555 c-146 -151 -159 -157 -236 -113 -21 12 -42 19 -45 15 -9 -8 66 -93 129 -145 95 -78 148 -78 234 1 36 33 45 37 58 27 25 -21 17 -84 -25 -207 -22 -65 -40 -121 -40 -125 0 -4 52 -8 115 -8 l114 0 17 57 17 58 -32 62 c-18 34 -61 92 -96 129 l-64 68 20 25 c44 57 133 141 148 141 9 0 27 -7 39 -16 45 -31 34 -4 -24 62 -70 80 -106 104 -159 104 -38 0 -46 -6 -170 -135z" fill="#1c1c1c"/>
<path d="M4498 277 c-131 -55 -216 -126 -271 -226 l-28 -51 126 0 127 0 41 35 c101 87 239 116 362 78 58 -18 60 -20 73 -66 l13 -47 55 0 c30 0 54 3 54 8 0 16 -139 164 -194 207 -66 51 -125 72 -229 80 -62 5 -80 2 -129 -18z" fill="#1c1c1c"/>
<path d="M1420 213 c-8 -3 -42 -25 -75 -48 -76 -54 -93 -62 -144 -74 -36 -8 -48 -6 -89 16 -26 13 -59 36 -74 51 -16 14 -28 21 -28 16 0 -5 37 -47 83 -92 l83 -83 195 5 c107 3 208 6 224 7 17 0 43 -2 60 -6 l29 -8 -34 44 c-92 120 -184 189 -230 172z" fill="#1c1c1c"/>
<path d="M3940 195 c0 -3 7 -19 15 -36 17 -32 9 -87 -19 -124 -9 -11 -16 -23 -16 -27 0 -5 45 -8 100 -8 55 0 100 3 100 8 0 9 -159 186 -171 190 -5 2 -9 1 -9 -3z" fill="#1c1c1c"/>
<path d="M310 177 c0 -2 11 -17 25 -33 37 -42 40 -68 15 -109 l-22 -35 93 0 92 0 -18 23 c-51 61 -185 173 -185 154z" fill="#1c1c1c"/>
<path d="M5730 127 c0 -7 23 -39 51 -70 l51 -57 71 0 72 0 -65 31 c-35 16 -83 45 -105 63 -48 39 -75 51 -75 33z" fill="#1c1c1c"/>
<path d="M9488 116 c-69 -18 -148 -78 -148 -110 0 -3 105 -6 233 -6 l232 1 -57 53 c-77 73 -153 91 -260 62z" fill="#1c1c1c"/>
</g>
</svg>